<?xml version="1.0" encoding="utf-8"?>
<!-- Generator: Adobe Illustrator 24.0.1, SVG Export Plug-In . SVG Version: 6.00 Build 0)  -->
<svg version="1.1" id="Calque_1" xmlns="http://www.w3.org/2000/svg" xmlns:xlink="http://www.w3.org/1999/xlink" x="0px"
	y="0px" viewBox="0 0 100 90" style="enable-background:new 0 0 100 90;" xml:space="preserve">
	<style type="text/css">
		.st0 {
			fill-rule: evenodd;
			clip-rule: evenodd;
			fill: #FFFFFF;
		}
	</style>
	<path class="st0" d="M83.62,19.76c-8.22,0.11-10.18-0.14-10.49-0.14c-0.12-0.06-0.09-0.02-0.13-0.15v0c0.14-0.28-0.4,0,5.87-0.04
	c13.04-0.07,13.13-0.15,13.13,0.13C91.9,19.78,92.77,19.63,83.62,19.76z" />
	<path class="st0"
		d="M59.56,21.56c-0.41-0.01-0.68,0.03-0.68-0.16c0.09-0.19-0.08-0.14,1.92-0.1c7.42,0.14,16.01-0.17,24.06-0.17
	c5.75,0,7.91,0.12,8.5,0.12c0.11,0.05,0.08,0.02,0.13,0.14c0,0.3,0.02-0.04-11.04,0.1C75.13,21.58,67.02,21.79,59.56,21.56z" />
	<path class="st0" d="M36.48,21.14c0.21,0,1.19,0.14,4.54,0.14c4.01,0,13.31-0.43,13.31,0.01c-0.12,0.27,0.33,0-5.94,0.2
	c-4.77,0.15-7.7,0.26-11.92-0.06h0c-0.12-0.06-0.09-0.02-0.13-0.15C36.38,21.16,36.33,21.19,36.48,21.14z" />
	<path class="st0" d="M21.62,21.13c10.71,0.17,9.95-0.01,10.05,0.24c0,0.42-26.13-0.15-27.66-0.15c-0.13-0.05-0.09-0.02-0.14-0.14v0
	C3.93,20.9,2.6,20.86,21.62,21.13z" />
	<path class="st0" d="M24.17,18.07c14.79,0,9.34-0.03,10.87-0.03c0.12,0.05,0.09,0.01,0.15,0.14v0c-0.11,0.28,0.5,0.16-12.84,0.27
	c-4.82,0.08-10.12,0.11-14.98,0.03c-1.04-0.03-1.23,0.02-1.23-0.17c0.1-0.22-0.27-0.1,4.25-0.1C15.8,18.19,21.24,18.07,24.17,18.07z
	" />
	<path class="st0" d="M51.81,17.95c2.76,0,2.9-0.06,2.9,0.15c-0.05,0.12-0.02,0.09-0.15,0.14c0.11,0-6.82,0.16-17.5-0.03
	c0,0-0.08,0-0.09,0c-0.12-0.05-0.09-0.02-0.13-0.14v0C36.9,17.94,35.74,17.88,51.81,17.95z" />
	<path class="st0" d="M67.88,17.57c6.1-0.1,10.4-0.16,16.39-0.04c3.49,0.08,3.5,0.04,3.5,0.24c-0.06,0.12-0.02,0.09-0.15,0.14
	c-1.45,0-3.04-0.18-15.02-0.04c-14.27,0.14-11.82,0.03-14.16,0.03c-0.11-0.05-0.08-0.02-0.13-0.14
	C58.31,17.52,58.1,17.71,67.88,17.57z" />
	<path class="st0" d="M53.75,19.6c0-0.16-0.62-0.18,7.71-0.22c2.68-0.01,6.72,0.01,8.11,0.01c1.84,0.01,1.68-0.04,1.76,0.14
	c0,0.29-11.7,0.2-16.08,0.2C53.68,19.73,53.83,19.77,53.75,19.6z" />
	<path class="st0" d="M29.56,17.05c-1.07,0.01-0.95,0.03-1.02-0.13c0-0.18,0.12-0.15,1.02-0.16c8.35-0.2,14.83-0.06,18.09-0.06
	c0.12,0.05,0.09,0.02,0.14,0.14C47.78,17.13,39.49,16.97,29.56,17.05z" />
	<path class="st0" d="M26.08,17.14c-9.85,0-8.86,0.01-8.94-0.16c0-0.18,0.09-0.16,1.57-0.19c1.8-0.05,3.63-0.04,5.48,0.01
	c1.89,0.05,2.03,0.01,2.03,0.2C26.17,17.12,26.21,17.09,26.08,17.14z" />
	<path class="st0"
		d="M15.26,17.05c-0.15,0-1.35,0.11-3.05,0.11c-2.72,0-2.03-0.04-4.95-0.04c-0.13-0.05-0.09-0.02-0.15-0.14v0
	c0.06-0.16,0.02-0.14,0.46-0.16c2.93-0.08,3.32-0.01,6.22-0.01c1.36-0.02,1.59-0.09,1.59,0.1C15.35,17.03,15.38,16.99,15.26,17.05z" />
	<path class="st0" d="M71.26,16.93c-0.12-0.04-0.09-0.01-0.15-0.13c0-0.18,0.15-0.15,1.25-0.22c6.96-0.38,12.37-0.18,16.86-0.22
	c0.12,0.05,0.08,0.02,0.14,0.13v0c-0.15,0.36-10.32,0.06-17.82,0.43C71.53,16.92,71.28,16.93,71.26,16.93z" />
	<path class="st0" d="M63.95,16.82c-5.65,0.09-5.18,0.16-5.28-0.05c0-0.19-0.03-0.15,2.79-0.26c4.94-0.16,6.66,0.01,7.32,0.01
	c0.11,0.05,0.08,0.02,0.13,0.14v0C68.81,16.9,69.25,16.73,63.95,16.82z" />
	<path class="st0" d="M56.69,16.93c-1.68,0,1.73,0.06-6.93,0.06c-0.12-0.05-0.09-0.02-0.15-0.14c0-0.29,2.45-0.2,7.07-0.2
	c0.12,0.05,0.09,0.01,0.14,0.13v0C56.78,16.91,56.81,16.88,56.69,16.93z" />
	<path class="st0" d="M7.77,19.46c46.56-0.11,44.94-0.04,44.94,0.21c-0.12,0.24-42.58,0.08-42.69,0.08
	c-4.71-0.01-4.65,0.06-4.65-0.15C5.45,19.41,5.25,19.46,7.77,19.46z" />
	<path class="st0" d="M1.13,24.3c0,0.01,0.04,0.02,0.09,0.04c0.04,0.06,0.05,0.05,0.21,0.08l0,0l0,0c0.03-0.02,0.05-0.03,0.07-0.04
	c0.81,0.07,2.96,0.13,6.09,0.17c0,2.68,0.05,38.57,0.05,38.71c0.05,22.17-0.01,24.8,0.16,25.11c-3.89-0.07-6.27-0.1-6.4-0.04
	l-0.07,0.16v0c0.08,0.2,0.02,0.15,0.23,0.24c0.01,0-0.01,0,0.87,0.02c54.38,1.22,48.69,0.85,76.43,0.69
	c13.42-0.07,15.69,0.12,17.24,0.12c0.2-0.08,0.15-0.03,0.23-0.22c0-0.24,0.42-0.31-6.58-0.38c0-0.08-0.02-0.22-0.05-0.87
	c-0.21-4.46-0.19-12.71-0.1-21.85c0.1,0.01,0.24,0.01,0.43,0.03c1.72,0.13,2.4,0.04,2.77,0.02c-0.04,5.03-0.05,8.75,0,8.8
	c0.16,0.11-0.06,0.07,3.37,0.13c2.37,0.05,2.28,0.07,2.43-0.1c0.2-0.32,0.42-36.08,0.24-36.08h0.05c-0.01-0.11-0.05-0.17-0.16-0.22
	c-0.11-0.03-5.29-0.06-5.4-0.03c-0.08,0.03-0.16,2.56-0.24,6.25c-0.36-0.02-1.44-0.22-2.31-0.19c-0.49,0.01-0.41,0.02-0.53,0.02l0,0
	c-0.05,0-0.21,0.02-0.37,0.04c0.11-8.27,0.18-15.34,0.09-18.73c-0.03-0.96-0.03-1.51-0.06-1.81c4.86-0.04,7.36-0.06,6.15-0.06
	c0.1-0.04,0.14-0.05,0.16-0.08c0.06-0.02,0.06-0.04,0.12-0.19c0-2.16-1.54-4.54-2.99-6.09c-1.26-1.3-2.53-2.29-4.29-2.76
	c-0.46-0.1-0.51-0.09-0.62-0.05c-0.31-0.07-1.19-0.02-3.69-0.02c-1.1,0-4.62,0-9.23,0C71.53,4.35,60.6,0.78,49.11,0.79
	c-2.45,0-4.88,0.16-7.33,0.55c-8.45,1.34-17.22,5.69-19.99,13.78c-9.73,0.01-12.52,0.02-13.3,0.1c-0.01,0-0.01,0-0.02,0
	c-0.36,0-1.2,0.26-1.79,0.51c-3.11,1.42-5.18,4.4-5.54,6.61c-0.22,1.06,0.02,1.77,0.02,1.88c0,0,0,0,0,0
	C1.15,24.25,1.15,24.27,1.13,24.3z M75.07,15.12c-0.45,0-0.91,0-1.38,0C69.54,4.09,56.24,1.25,44.42,2.38
	c-8.64,0.84-18.06,4.65-21.01,12.75c-0.41,0-0.81,0-1.19,0c0.08-0.23,0.2-0.54,0.39-0.96C26.18,6.13,35.58,2.48,44.3,1.62
	c11.12-1.06,24.25,1.13,29.67,11.12C74.71,14.09,74.95,14.77,75.07,15.12z M24.25,13.59c4.23-8.14,14.83-11.05,24-11.17
	c10.72-0.13,21.29,2.76,25.27,12.7c-9.53-0.01-22.48-0.02-29.08-0.01c-9.01,0.01-15.77,0.02-20.86,0.02
	C23.66,14.87,23.82,14.43,24.25,13.59z M87.54,23.92c-28.3,0.11-10.52-0.06-85.92,0.14c-0.04-0.25-0.21-1.02,0.29-2.43
	c0.96-2.62,3.9-5.52,6.63-5.96l0,0c0.02-0.01,0.02-0.01,0.04-0.02c7.93,0,31.99,0.14,63.74,0c12.95-0.05,15.59-0.02,16.14-0.14
	c0.02,0.01,0.04,0.02,0.07,0.04c0,0,0.12,0.02,0.12,0.02c3.39,0.74,7.07,5.63,7.23,8.28C95.11,23.83,93.08,23.9,87.54,23.92z
	 M8.22,86.86c0-0.56,0-1.32-0.01-2.37c0.58,0.46,1.09,0.93,2.19,1.92l0,0c0.91,0.8,1.2,1.08,1.95,1.54c0.38,0.24,0.6,0.39,0.74,0.49
	c-0.56-0.01-1.1-0.02-1.63-0.03v-0.09c-0.18-0.21-0.49-0.5-0.91-0.76c-0.45-0.29-0.35-0.25-0.5-0.23l0.01,0.12
	c0.11,0.1,0.4,0.36,0.64,0.51c0.4,0.29,0.54,0.4,0.6,0.45c-0.47-0.01-0.92-0.02-1.35-0.03c-0.08-0.08-0.23-0.22-0.54-0.53
	C8.82,87.31,8.49,87.06,8.22,86.86z M13.37,88.46c-0.7-0.63-0.7-0.32-2.8-2.22v0c-0.66-0.59-1.54-1.38-2.35-1.96
	c0-0.36,0-0.76,0-1.19c0.28,0.26,1.18,0.99,4.13,3.5c0.94,0.79,1.53,1.41,2.4,1.89C14.28,88.47,13.82,88.46,13.37,88.46z
	 M10.31,61.24c0.2,0,0.5,0.01,1.01,0.02c1.76,0,1.5,0.01,1.61-0.09c-0.11-0.11-0.02-0.08-0.44-0.11c-1.01-0.06-1.22-0.06-2.18-0.02
	c0-0.41-0.01-0.83-0.01-1.24c0.94,0.1,1.58,0.12,2.33,0.11c0.93-0.01,0.79,0.01,0.9-0.1c-0.12-0.11,0.22-0.1-3.23-0.18
	c-0.01-0.85-0.02-1.72-0.02-2.6c0.43,0.03,2.37-0.05,11.2-0.02c-0.08,15.62-0.06,19.79,0.01,20.89c-3.14-0.02-6.77-0.07-10.93-0.14
	c-0.01,0-0.01-0.08-0.02-0.22c3.8,0.1,2.25,0.04,5.04,0.04c1.57-0.02,1.3,0.05,1.44-0.08c-0.11-0.11,0.11-0.1-1.44-0.13
	c-3.04,0-4.43-0.03-5.04-0.02c0-0.09-0.01-0.2-0.01-0.32c5.39,0.11,8.73,0.15,8.88-0.01c-0.12-0.12,0.34-0.07-3.51-0.14
	c-0.1-0.01-2.46-0.04-4.03-0.03c-0.69,0-1.1,0-1.35,0c-0.01-0.23-0.01-0.49-0.02-0.8c1.5,0.15,3.02,0.15,4.53,0.15
	c0.68,0.01,0.54,0.03,0.65-0.08c-0.11-0.11,0.36-0.11-4.02-0.2c-0.78-0.02-1.04-0.04-1.16-0.03c0-0.23-0.01-0.47-0.01-0.73
	c2.26,0.28,4.59,0.18,7.13,0.18c1.39,0.02,1.15,0.06,1.28-0.06c-0.1-0.11-0.05-0.09-0.21-0.1c-3.16-0.16-5.39,0.03-8.2-0.2
	c0-0.23-0.01-0.47-0.01-0.72c0.8,0.09,1,0.14,2.89,0.14c0.13,0,0.08,0.02,0.2-0.08c-0.12-0.12,0.24-0.08-2.65-0.22
	c-0.19-0.01-0.33-0.02-0.44-0.02c0-0.23-0.01-0.48-0.01-0.73c2.28,0.03,9.1,0.32,9.33,0.1c-0.12-0.12,0.18-0.07-1.73-0.12
	c-2.38-0.07-3.99-0.15-6.73-0.15c-0.43,0-0.69,0-0.87,0c0-0.27-0.01-0.54-0.01-0.83c1.02,0.11,2.49,0.12,3.53,0.1
	c0.31,0,0.23,0.02,0.34-0.09c-0.12-0.11,0.09-0.08-1.22-0.12c-1.41-0.05-2.17-0.06-2.65-0.07c0-0.38-0.01-0.78-0.02-1.18
	c2.68,0.24,5.06,0.16,7.46,0.12c1.85-0.04,1.55,0.02,1.68-0.11c-0.11-0.11,0-0.08-0.52-0.09c-2.83-0.02-6.39,0.07-8.62-0.08
	c0-0.3-0.01-0.6-0.01-0.92c0.06,0.01,0.19,0.02,0.52,0.04c0.44,0.03,0.83,0.05,1.3,0.05c1.28-0.01,1.08,0.01,1.19-0.1
	c-0.12-0.12,0.09-0.07-1.19-0.13c-0.23,0-0.54-0.03-1.3-0.02c-0.34,0-0.47,0-0.53,0c0-0.35-0.01-0.71-0.01-1.08
	c4.59,0.1,9.24,0.44,9.49,0.2c-0.13-0.13,0.28-0.05-2.95-0.2c-2.18-0.1-3.7-0.18-6.12-0.18c-0.19,0-0.33,0-0.43,0
	c0-0.28-0.01-0.56-0.01-0.85c0.07,0.04,0.33,0.04,1.83,0.08c0.63,0,0.3,0.02,2.14,0c1.52-0.02,1.29,0,1.41-0.11
	c-0.13-0.12,0.12-0.08-1.41-0.11C12.77,67.5,13,67.5,12.21,67.5c-1.52,0.01-1.77,0-1.84,0.03c0-0.27-0.01-0.55-0.01-0.83
	c0.07,0.03,0.37,0.01,2.22,0.04c6.03,0.07,7.08,0.3,7.27,0.13c-0.11-0.12,0.14-0.08-1.96-0.2c-2.06-0.1-2.87-0.14-5.31-0.14
	c-1.84,0.01-2.14,0-2.22,0.04c-0.01-0.9-0.02-1.84-0.03-2.81c1.61,0.13,2.57,0.06,3.88,0.09l0.09-0.08l-0.08-0.09
	c-1.49-0.12-3.11-0.08-3.89-0.1c0-0.38-0.01-0.77-0.01-1.16c0.04,0.04,0.06,0.02,0.37,0.04c1.07,0.06,1.62,0.03,2.81-0.03l0.09-0.08
	l-0.09-0.08c-0.56-0.01-1.11-0.02-1.67-0.02c-1.26,0.02-1.44,0.01-1.5,0.05C10.31,61.97,10.31,61.61,10.31,61.24z M34.07,40.28
	c0.21,0.13-0.02,0,0.44,0.27h0c0.07,0.04,0.21,0.11,0.34,0.19c-2.33,0-4.23,0-5.78,0c0.03-0.03,0.06-0.05,0.1-0.08
	c0.18-0.14,0.19-0.16,0.36-0.33c0.28-0.31,0.35-0.4,0.37-0.46c0,0,0.01,0.01,0.01,0.01l0.04,0.06c0.7,0.21,3.14,0.07,3.68,0.01
	C33.7,40.01,33.82,40.1,34.07,40.28z M32.36,39.78c-1.05,0-1.18,0.11-2.1,0.04c-0.15-0.02-0.21-0.04-0.24-0.04
	c0.01-0.04,0-0.14,0.1-0.53c0.12-0.5,0.42-1.01,0.87-1.28c1.2-0.61,2.36,0.66,2.47,1.82C33.29,39.8,32.98,39.81,32.36,39.78z
	 M28.65,37.63c0.06,0.14,0.04,0.45,0.05,0.62c0.01,0.24,0.09,0.69,0.22,1.13c-0.48,0.15-0.82,0.07-2.73,0
	c-0.69-0.02-0.88-0.09-0.97-0.11c0.21-0.44,0.35-0.79,0.36-0.84c0.06-0.27,0.01-0.7,0.12-0.96l0,0c0,0,0,0,0-0.01
	c0,0,0-0.01,0.01-0.01h0l0,0v0c0,0,0,0,0,0l0,0h0c0,0,0,0,0,0h0c0,0,0,0,0.01,0h0c0,0,0,0,0.01,0h0l0,0h0l0,0
	c0.32,0,0.12,0.04,1.28-0.01c0.84-0.04,1.01-0.08,1.25-0.03c0.16,0.04,0.26,0.08,0.36,0.21l0,0l0,0c0,0,0,0,0,0l0,0l0,0v0l0,0l0,0
	C28.64,37.61,28.65,37.61,28.65,37.63l0-0.01C28.65,37.62,28.65,37.62,28.65,37.63L28.65,37.63C28.65,37.62,28.65,37.62,28.65,37.63
	L28.65,37.63L28.65,37.63C28.65,37.63,28.65,37.63,28.65,37.63z M24.69,37.93c0.01,0.01,0.01,0.01,0.02,0.02
	c0.02,0.04,0.05,0.09,0.07,0.15c0.15,0.43,0.18,0.78,0.2,0.89c-0.32-0.23-0.45-0.61-0.45-0.83c0-0.09,0.01-0.12,0.03-0.17
	c0,0,0,0,0,0l0,0v0c0,0,0,0,0-0.01l0,0c0-0.01,0,0,0.01-0.01l0,0c0-0.01,0,0,0.01-0.01l0,0c0-0.01,0,0,0.01-0.01l0,0
	c0-0.01,0,0,0.01-0.01l0,0c0-0.01,0,0,0.01-0.01l0,0c0,0,0-0.01,0.01-0.01l0,0l0,0l0,0c0,0,0.01,0,0.01-0.01l0,0l0,0l0,0l0,0l0.01,0
	l0,0c0.01,0,0,0,0.01-0.01l0,0c0.01,0,0,0,0.01-0.01l0,0c0.01,0,0,0,0.01-0.01h0h0l0,0h0l0,0c0,0,0,0,0,0h0h0l0,0h0l0,0l0,0l0,0l0,0
	h0h0h0h0l0,0l0,0l0,0l0,0h0h0l0,0l0,0l0,0l0,0l0,0h0l0,0l0,0l0,0l0,0l0,0l0,0l0,0c0,0,0,0,0.01,0.01l0,0l0,0L24.69,37.93
	C24.69,37.93,24.69,37.93,24.69,37.93L24.69,37.93z M24.17,39.08c0,0,0.01,0,0.02,0h0c0.01,0,0,0,0.01,0c0,0,0.01,0,0.01,0l0,0
	c0.16,0,0.51,0.2,0.65,0.2c-0.01,0.01-0.24,0.1-0.26,0.11c-0.1,0.03-0.07,0.02-0.13,0.03h0c-0.01,0,0,0-0.01,0h0l0,0
	c0,0-0.01,0-0.01,0l0,0c-0.02,0-0.03,0-0.05,0l0,0h0l0,0h0l0,0h0c0,0-0.01,0-0.01,0h0c-0.02,0-0.04-0.01-0.05-0.02l0,0
	c0,0,0,0-0.01,0h0h0h0l0,0l0,0l0,0l0,0l0,0l0,0l0,0c0,0,0,0,0,0l0,0c0,0,0,0-0.01,0l0,0c0,0,0,0-0.01,0l0,0c0,0,0,0-0.01,0h0
	c0,0,0,0-0.01,0l0,0c0,0,0,0-0.01-0.01l0,0h0c-0.09-0.11-0.04-0.05-0.1-0.16l0,0l0,0c0,0,0,0,0-0.01l0,0c0-0.01,0-0.01,0-0.02l0,0
	l0,0v0c0-0.01,0,0,0-0.01l0,0c0,0,0-0.01,0-0.01l0,0l0,0v0v-0.01v0l0,0l0,0l0,0v0v0v0l0,0l0,0l0,0v0v0v0l0,0v0l0,0l0,0v0v0l0,0v0
	l0,0c0,0,0,0,0,0l0,0v0h0v0l0,0v0h0v0h0v0h0l0,0h0c0,0,0,0,0,0h0l0,0h0l0,0l0,0l0,0C24.16,39.09,24.16,39.09,24.17,39.08
	L24.17,39.08C24.16,39.09,24.17,39.09,24.17,39.08L24.17,39.08C24.17,39.08,24.17,39.08,24.17,39.08L24.17,39.08z M29.24,40.16
	c0.02,0.04,0.04,0.06,0.05,0.07c-0.27,0.24-0.44,0.4-0.55,0.5c-2.01,0-3.41,0-4.39,0c0.3-0.38,0.58-0.87,0.8-1.31
	c0.76,0.21,1.8,0.22,2.7,0.26c0.53,0,0.66,0.01,1.13-0.14C29.05,39.76,29.13,39.98,29.24,40.16z M35.57,40.98c0,0.07,0,0.13,0,0.2
	c-0.48,0.01-2.28-0.01-6.12,0.09c-3.37,0.06-2.96,0.02-3.08,0.14c0.24,0.24,7.18-0.02,9.2-0.06c0,0.14,0,0.29,0,0.44
	c-0.03,0-0.08,0-0.17,0c-0.4-0.01-1.17-0.02-1.57-0.02c-2.03,0.03-1.76-0.02-1.89,0.1c0.11,0.11,0.04,0.08,0.31,0.1
	c1.49,0.07,1.98,0.05,3.15,0c0.09,0,0.14,0,0.17-0.01c0,0.27,0,0.54,0,0.82c-0.08-0.11-0.04-0.08-0.18-0.11
	c-2.84-0.4-5.13-0.28-8.74-0.32c-1.32-0.03-1.1-0.07-1.23,0.04c0.13,0.14-0.34,0.13,5.27,0.22c4.73,0.06,4.66,0.33,4.88,0.17
	c0,0.71,0.01,1.44,0.01,2.17c-0.18-0.01-0.66-0.01-2.05-0.1c-1.25-0.07-4.5-0.34-6.83-0.44c-1.36-0.07-1.17-0.07-1.28,0.04
	c0.13,0.14-0.13,0.06,1.27,0.16c1.73,0.11,7.79,0.63,8.89,0.49c0,0.38,0,0.76,0.01,1.14c-0.56-0.05-2.4-0.05-7.79-0.2
	c-3.77-0.15-3.25-0.24-3.43-0.1c0.11,0.12-0.15,0.09,2.09,0.25c1.7,0.1,3.66,0.21,9.12,0.21c0,0.12,0,0.23,0,0.35
	c-0.01,0-0.01,0-0.02-0.01c-1.1,0-0.72-0.18-13.18-0.07c-0.12,0-0.08,0.42-0.08-3.74h0.01l0-1.8c2.35,0,5.59-0.02,7.31-0.03
	C33.56,41.02,35.02,41.01,35.57,40.98z M35.8,77.88c-0.54,0-2.05,0.02-4.55,0.04c0.02-0.57,0.01-2.14,0.06-6.55
	c0.06-5.35,0.13-5.38-0.14-5.4h-0.36c-0.16,0-0.31,0-0.46,0c0.07-0.25,0.04-0.49-0.1-0.67c-0.09-0.12-0.23-0.21-0.39-0.29
	c0.07-0.1,0.14-0.2,0.16-0.32c0-0.01,0-0.03,0-0.03c0.01-0.08,0-0.17-0.03-0.25c0,0-0.01-0.01-0.01-0.01
	c0.52-0.05,0.83-0.6,0.37-1.01c-0.17-0.15-0.41-0.24-0.63-0.31c0.06-0.02,0.11-0.04,0.16-0.07c0.14-0.07,0.17-0.13,0.2-0.22v-0.01
	l0,0c0,0,0-0.02,0-0.02c0.01-0.05,0-0.06,0-0.1c0-0.01,0-0.02,0-0.03c0-0.01-0.01-0.03-0.01-0.04c-0.01-0.03,0-0.01-0.03-0.07
	l-0.02-0.01c0.09-0.2-0.67-0.85-2.94-0.85c-0.74,0-2.75,0.2-2.86,0.21c-0.24,0.04-0.42,0.08-0.61,0.24
	c-0.21,0.21-0.24,0.51-0.14,0.72c0.05,0.08,0.1,0.13,0.16,0.18c-0.22,0.05-0.42,0.15-0.54,0.44c0,0.01-0.01,0.04-0.02,0.05
	c-0.04,0.27,0.06,0.49,0.44,0.6c-0.19,0.17-0.3,0.4-0.3,0.74c-0.14,0.03-0.27,0.08-0.37,0.18c-0.25,0.25-0.3,0.71-0.25,1.02
	c-0.38,0.01-0.63,0.02-0.8,0.04c0.04-6.08,0.06-9.26,0.01-9.35c-0.03-0.04-0.04-0.05-0.09-0.06l-0.03-0.01c-0.23,0-0.63,0-1.12,0
	c0.12-0.44,0.31-0.92,0.01-1.27c-0.07-0.08-0.16-0.14-0.27-0.19c0.38-0.48,0.22-0.8-0.28-1.01c0.12-0.16,0.19-0.32,0.2-0.44
	c0.05-0.71-1.25-0.81-1.96-0.85c-0.44-0.02-0.98-0.05-2.06-0.06c0.11-0.22,0.14-0.45-0.05-0.64c-0.76-0.65-4.51-0.35-5.49-0.26
	c-0.21,0.02-0.33,0.03-0.42,0.04c-0.12-13.05-0.21-26.18-0.21-26.23c2.12,0,4.04,0,5.83,0c0,0.19,0.01,0.58,0.04,1.49l0,0
	c0.02,0.56,0.06,1.56,0.07,1.67c0.05,1.33,0.01,1.38,0.06,1.43c-0.35,0.17-1.45,1.19-1.87,1.6c-1.5,1.48-1.31,1.34-1.31,1.46
	c0.21,0-0.05,0.1,1.46-1.3c0.56-0.54,1.19-1.08,1.83-1.55c0.39,0,2.1,2.13,2.9,2.87c0.04,0.03,0.06,0.05,0.08,0.07
	c-0.01,0-0.01,0-0.02,0c-2.86,0-4.33,0.04-6.11-0.11l-0.09,0.07l0.07,0.09c0.99,0.11,1.71,0.16,2.44,0.18
	c-0.26,0.47,0.22,0.85,0.73,0.73h0c0.17-0.04,0.28-0.14,0.32-0.24c0-0.01,0-0.01,0.01-0.02c0-0.01,0.03-0.06,0.03-0.13
	c0-0.09-0.02-0.18-0.09-0.32l-0.08-0.03c0.57,0,1.2-0.02,2-0.05c1.15-0.04,0.95,0.01,1.07-0.11c-0.01-0.01-0.02-0.02-0.03-0.03
	l-0.01-0.08c-0.84-0.73-1.53-1.76-2.22-2.42l0,0c-0.19-0.18-0.69-0.71-0.97-0.73c0.05-0.08,0.04-0.27,0.04-1.41
	c0-0.49-0.02-1.15-0.06-1.82c-0.05-0.8-0.07-1.16-0.09-1.33c4.16,0,7.44-0.01,10.02-0.02c-0.01,0.17,0.02,0.56,0.09,1.58
	c0.03,0.27,0.03,0.43,0.04,0.52c-0.04,0.02-0.08,0.05-0.15,0.1c-0.24,0.24-1.92,2.46-3.2,3.63c0,0.02,0,0.04,0,0.05
	c-0.07,0-0.11,0.02-0.16,0.06c0.09,0.11,0.03,0.09,0.3,0.12c1.09,0.13,2.11,0.16,3.12,0.14l0,0c-0.42,0.32-0.41,0.97,0.11,1.1
	c0.65,0.12,1.04-0.64,0.76-1.13c0.98-0.04,1.97-0.12,3.04-0.2c0.14-0.01,0.09,0.01,0.19-0.1c-0.04-0.04-0.05-0.06-0.08-0.07
	c-0.01-0.08-0.07-0.05-0.96-0.93c-1.48-1.48-2.3-2.69-2.78-2.8c0.01-0.74-0.05-1.55-0.12-2.09c10.23-0.03,9.39-0.07,9.39,0.04
	c-0.06,1.6-0.06,7.58-0.04,14.95c-0.13,0-0.25,0-0.38,0c-0.27-0.2-0.65-0.46-1-0.65c-0.49-0.29-0.52-0.33-0.58-0.32
	c-0.1-1.2-0.97-2.06-1.72-2.17l0,0c-1.12-0.19-1.88,0.78-2.03,2.02c-0.01,0.08-0.01,0.11-0.01,0.14c-0.07,0-0.06,0.03-0.43,0.36
	c-0.19-0.33-0.31-0.67-0.38-1.04c-0.03-0.12-0.12-0.63-0.12-0.79c0-0.3,0.02-0.62-0.08-0.79c-0.3-0.44-0.86-0.36-1.37-0.33
	c-1.77,0.1-1.33,0.04-1.68,0.04c-0.39,0-0.38,0.49-0.39,0.64c-0.01,0.16,0,0.5-0.05,0.61l0,0c-0.07,0.16-0.14,0.32-0.21,0.48
	c-0.03-0.33-0.09-0.66-0.16-0.88v0c-0.03-0.1-0.07-0.21-0.14-0.28c0,0-0.02-0.02-0.02-0.02c-0.01,0,0,0-0.01-0.01l0,0
	c-0.01-0.01-0.01-0.01-0.03-0.02l-0.01,0l0,0c0,0-0.02-0.01-0.03-0.02c-0.01,0-0.02,0-0.03,0c-0.13-0.05-0.34,0.1-0.4,0.31
	c-0.06,0.21,0,0.6,0.24,0.93h0l0,0l0,0c-0.22-0.08-0.48-0.12-0.6,0.08c0,0.01-0.01,0.02-0.01,0.03c0,0.02-0.01,0.03-0.01,0.05
	c0,0.01,0,0.01,0,0.01c-0.01,0.06,0.01,0.12,0.03,0.18l0,0c0.15,0.52,0.68,0.3,0.95,0.17c-0.15,0.32-0.31,0.63-0.52,0.93
	c-0.13,0.19-0.21,0.29-0.25,0.34c-1.83,0-2.02,0.01-2.08,0.03c-0.03,0.02-0.02,0.01-0.05,0.03c-0.1,0.11-0.09,6.02-0.02,6.13
	c0.11,0.12-0.16,0.05,6.04-0.01c8.8-0.05,6.66,0.04,7.52,0.04c0.02-0.01,0.03-0.01,0.04-0.01C35.66,60.21,35.78,75.18,35.8,77.88z
	 M34.09,24.88c0.23,0.21,0.09,0.09,0.36,0.32l0,0c0.02,0.02,0.03,0.03,0.05,0.04c-0.27,0-0.57,0-0.94,0c-0.18,0-0.34,0-0.51,0
	c-0.24-0.3-0.45-0.48-0.64-0.62c0.48,0,0.96,0,1.44,0C34.12,24.93,34.05,24.83,34.09,24.88z M22.63,24.87
	c-0.1-0.1-0.2-0.18-0.3-0.25c0.42,0,0.86,0,1.29,0c0.15,0.18,0.37,0.39,0.65,0.62c-1,0-1.93,0-2.8,0c0-0.12,0.02-0.09-0.23-0.32v0
	c-0.08-0.07-0.15-0.14-0.2-0.18c-0.06-0.05-0.1-0.08-0.15-0.12c0.34,0,0.68,0,1.03,0c0.37,0.26,0.62,0.4,0.79,0.59l0.12,0.01
	C22.84,25.09,22.88,25.11,22.63,24.87z M11.06,25.21c-0.21-0.22-0.48-0.44-0.78-0.64c0.28,0,0.57,0,0.87,0.01
	c0.04,0.07,0.18,0.18,0.8,0.64c-0.34,0-0.63,0-0.88,0C11.06,25.21,11.06,25.21,11.06,25.21z M11.44,24.58
	c0.41,0,0.83,0.01,1.26,0.01c0.07,0.07,0.25,0.21,0.78,0.63c-0.45,0-0.84,0-1.19,0c-0.05-0.04-0.09-0.08-0.17-0.16l0,0
	C11.89,24.87,11.81,24.81,11.44,24.58z M13.02,24.59c0.44,0,0.89,0,1.35,0.01c0.11,0.09,0.25,0.2,0.43,0.33
	c0.18,0.13,0.3,0.22,0.4,0.3c-0.51,0-0.97,0-1.4,0C13.57,24.98,13.34,24.79,13.02,24.59z M14.76,24.6c0.41,0,0.83,0,1.25,0.01
	c0.1,0.08,0.25,0.2,0.57,0.42c0.04,0.03,0.18,0.13,0.23,0.16h0c0.03,0.02,0.03,0.03,0.05,0.04c-0.49,0-0.93,0-1.36,0
	C15.3,25.02,15.09,24.82,14.76,24.6z M16.39,24.6c0.39,0,0.79,0,1.2,0c0.08,0.07,0.19,0.15,0.33,0.27c0.18,0.14,0.14,0.11,0.2,0.15
	l0,0c0.12,0.08,0.19,0.14,0.26,0.2c-0.44,0-0.86,0-1.25,0c-0.05-0.07-0.16-0.17-0.42-0.39h0C16.62,24.77,16.51,24.69,16.39,24.6z
	 M17.96,24.61c0.37,0,0.75,0,1.12,0c0.03,0.03,0.04,0.05,0.08,0.08l0,0c0.38,0.33,0.43,0.33,0.67,0.53c-0.41,0-0.8,0-1.17,0
	C18.43,24.98,18.2,24.78,17.96,24.61z M19.44,24.61c0.35,0,0.7,0,1.06,0c0.02,0.02,0.03,0.02,0.05,0.04h0
	c0.2,0.16,0.19,0.14,0.34,0.26h0c0.27,0.2,0.37,0.28,0.42,0.32c-0.42,0-0.82,0-1.21,0c-0.02-0.02-0.04-0.05-0.08-0.09
	C19.82,24.92,19.63,24.76,19.44,24.61z M23.93,24.62c0.36,0,0.73,0,1.1,0c0.28,0.26,0.55,0.47,0.66,0.56
	c0.03,0.02,0.04,0.04,0.07,0.06c-0.41,0-0.81,0-1.2,0c-0.05-0.05-0.13-0.13-0.31-0.32l0,0c-0.09-0.09-0.19-0.19-0.29-0.28l0,0
	C23.94,24.63,23.94,24.63,23.93,24.62z M25.38,24.62c0.41,0,0.83,0,1.24,0c0.07,0.08,0.16,0.17,0.25,0.25l0,0
	c0.09,0.07,0.22,0.18,0.33,0.27l0,0c0.05,0.04,0.09,0.07,0.13,0.1c-0.45,0-0.88,0-1.31,0C25.82,25.01,25.61,24.81,25.38,24.62z
	 M26.93,24.62c0.35,0,0.71,0,1.07,0c0,0,0,0,0.01,0c0.01,0.01,0.38,0.33,0.71,0.61c-0.36,0-0.71,0-1.06,0
	c-0.06-0.06-0.15-0.14-0.3-0.28l0,0C27.23,24.85,27.11,24.76,26.93,24.62z M28.35,24.62c0.43,0,0.86,0,1.3,0
	c0.36,0.35,0.52,0.45,0.63,0.54c0.04,0.04,0.06,0.05,0.09,0.08c-0.45,0-0.91,0-1.35,0C28.81,25,28.6,24.82,28.35,24.62z
	 M29.97,24.62c0.33,0,0.67,0,1,0c0.2,0.22,0.45,0.49,0.56,0.54c0.04,0.03,0.06,0.06,0.1,0.08c-0.33,0-0.65,0-0.96,0
	c-0.03-0.03-0.07-0.07-0.13-0.14C30.35,24.92,30.16,24.77,29.97,24.62z M31.27,24.62c0.26,0,0.52,0,0.78,0
	c0.02,0.01,0.02,0.02,0.04,0.04c0.33,0.28,0.53,0.46,0.67,0.59c-0.28,0-0.56,0-0.83,0C31.63,24.91,31.43,24.75,31.27,24.62z
	 M26.18,31.96l-0.06-0.01c0.2,0,0.4-0.01,0.6-0.01c0.12,0.15,0.14,0.4,0,0.64c-0.13,0.18-0.23,0.21-0.38,0.24
	c-0.09,0-0.16,0.01-0.25-0.05c-0.01,0,0,0-0.01-0.01l0,0c0,0,0,0-0.01-0.01l0,0c-0.01-0.01,0,0-0.01-0.01l0,0
	c-0.01-0.01,0,0-0.01-0.01l0,0c-0.12-0.12-0.14-0.42,0.1-0.66l0,0l0.01-0.01L26.18,31.96z M24.73,31.73
	c-1.04-0.02-1.51-0.07-1.75-0.09c0.26-0.21,0.92-0.89,2.56-2.71c0.21-0.23,0.44-0.68,0.73-0.88c0.19-0.08,1.83,1.91,3.06,3.04
	c0.27,0.24,0.42,0.38,0.51,0.46c-0.31,0.02-1.05,0.08-2.93,0.14C26.23,31.72,25.41,31.74,24.73,31.73z M16.26,33.75
	c-0.05,0.16-0.03,0.06,0.01,0.21c0.01,0.07,0.01,0.07,0.01,0.1v0c0,0.01,0,0,0,0.01v0c0,0.01,0,0,0,0.01v0c0,0.01,0,0,0,0.01l0,0
	c0,0.01,0,0,0,0.01v0v0.01l0,0v0c0,0.01,0,0,0,0.01v0c0,0,0,0,0,0.01l0,0v0c0,0,0,0,0,0c0,0,0,0,0,0.01v0l0,0l0,0l0,0v0
	c0,0,0,0,0,0.01l0,0c0,0,0,0,0,0.01l0,0c0,0,0,0,0,0.01l0,0c0,0,0,0,0,0.01l0,0c0,0,0,0-0.01,0.01l0,0c0,0,0,0-0.01,0.01l0,0
	c0,0,0,0-0.01,0.01l0,0c0,0,0,0-0.01,0.01l0,0l0,0l0,0l0,0c0,0,0,0-0.01,0.01l0,0c0,0,0,0-0.01,0.01l0,0c-0.01,0,0,0-0.01,0.01l0,0
	c0,0,0,0-0.01,0l0,0l0,0c0,0,0,0,0,0c-0.14,0.07-0.28,0.06-0.44,0.01c-0.01,0-0.01,0-0.02-0.01c-0.03-0.01-0.05-0.02-0.08-0.04l0,0
	v0c-0.01,0,0,0-0.01-0.01c-0.04-0.04-0.02-0.01-0.06-0.05c0,0,0,0-0.01-0.01l0,0c0,0,0,0-0.01-0.01l0,0c0-0.01,0,0-0.01-0.01l0,0
	l0,0l0,0l0,0c0-0.01,0,0-0.01-0.01l0,0c0-0.01,0,0-0.01-0.01l0,0c0-0.01,0,0,0-0.01l0,0l0-0.01l0,0c0,0,0,0,0-0.01l0,0
	c0-0.01,0,0,0-0.01c0,0,0,0,0,0v0l0,0c0,0,0,0,0-0.01l0,0c0-0.01,0,0,0-0.01l0,0c0-0.01,0,0,0-0.01v0c0-0.01,0,0,0-0.01v0
	c0-0.01,0,0,0-0.01v0c0-0.01,0-0.01,0-0.01l0,0v0l0,0c0-0.08,0.03-0.16,0.07-0.23C15.8,33.75,16.02,33.75,16.26,33.75z M10.26,56.81
	c0-0.57-0.01-1.15-0.02-1.73c0.23,0.02,0.79,0.04,2.31,0.14c1.18,0.07,3.98,0.24,5.24,0.13c0.58-0.04,1.28-0.15,2.02-0.04
	c0.91,0.16,0.77,0.48,0.56,1.37C17.46,56.69,11.32,56.73,10.26,56.81z M20.14,55.17c-0.03-0.01-0.06-0.02-0.09-0.03
	c0.04-0.07,0.1-0.08-0.01-0.43v0c-0.05-0.13,0-0.04-0.1-0.23v0c-0.04-0.06-0.06-0.1-0.08-0.13c0.24,0.09,0.4,0.2,0.45,0.35l0,0.01
	l0,0c0,0.01,0,0,0,0.01v0c0,0.01,0,0.01,0,0.02c0,0.02,0,0.02,0,0.05c0,0.01,0,0.02,0,0.03c-0.01,0.07-0.03,0.13-0.07,0.19
	C20.17,55.15,20.14,55.14,20.14,55.17z M19.85,54.16c-1.77-0.57-6.64-0.09-8.47-0.14c-1.23-0.03-0.98-0.1-1.13,0.02
	c0.05,0.06,0.04,0.08,0.17,0.1c0.01,0.05,0.04,0.07,0.24,0.32l0,0c0.11,0.13,0.06,0.08,0.42,0.47c-0.13,0-0.24-0.01-0.35-0.01
	c0.01-0.12,0.04-0.07-0.17-0.4v0c-0.06-0.09-0.09-0.13-0.16-0.21l0,0c-0.08-0.09-0.13-0.14-0.16-0.17c-0.01-0.65-0.01-1.3-0.02-1.96
	c0.08-0.01,0.21-0.02,0.43-0.04c0.78-0.06,4.77-0.25,5.32,0.19l0,0c0.06,0.06,0-0.01,0.07,0.08l0,0v0c0,0.01,0,0,0.01,0.01l0,0
	c0,0.01,0,0,0.01,0.01l0,0c0,0.01,0,0,0,0.01l0,0l0,0l0,0c0,0,0,0,0,0.01v0l0,0.01l0,0l0,0l0,0.01l0,0c0,0.01,0,0,0,0.01v0
	c0,0.01,0,0,0,0.01v0c0,0.01,0,0,0,0.01l0,0c0.03,0.1-0.03,0.24-0.08,0.33C16.01,52.84,16,52.84,16,52.85c-0.25,0-0.53,0-0.84,0
	c-5.37,0.04-4.78-0.01-4.91,0.12c0.19,0.2,4.77,0.06,7.89,0.17c1.02,0.02,2.34,0.16,1.74,0.97C19.87,54.13,19.86,54.14,19.85,54.16z
	 M10.24,54.48c0.08,0.11,0.18,0.25,0.37,0.43l0.04,0.01c-0.17,0-0.3,0-0.4,0.01C10.25,54.78,10.24,54.63,10.24,54.48z M19.73,54.58
	c0.11,0.25,0.12,0.28,0.14,0.31c0.11,0.23,0.05,0.18,0.16,0.25c-0.11-0.03-0.22-0.04-0.35-0.06c0.02-0.05,0-0.12-0.12-0.44
	c-0.06-0.14-0.14-0.29-0.24-0.43c0.11,0.02,0.21,0.04,0.31,0.06C19.62,54.33,19.64,54.33,19.73,54.58L19.73,54.58z M19.51,55.05
	c-0.31-0.02-0.66-0.01-1,0c-0.04-0.12-0.08-0.24-0.14-0.38v0c-0.12-0.25-0.16-0.28-0.16-0.29c-0.14-0.18-0.19-0.25-0.22-0.28
	c0.17,0,0.34,0.01,0.5,0.02c0,0.04,0.03,0.09,0.13,0.3l0,0c0.03,0.07,0.06,0.12,0.11,0.23v0c0.19,0.39,0.08,0.28,0.24,0.38
	c0.07-0.11,0.1-0.08-0.02-0.47v0c-0.08-0.19-0.06-0.17-0.19-0.36c-0.02-0.03-0.04-0.05-0.05-0.07c0.14,0.01,0.26,0.02,0.39,0.04
	c0.03,0.04,0.06,0.1,0.13,0.27c0.01,0.01,0.13,0.28,0.14,0.29h0C19.45,54.92,19.49,55,19.51,55.05z M18.32,55.07
	c-0.17,0.01-0.33,0.02-0.49,0.03l0.02-0.06c-0.07-0.23-0.15-0.41-0.29-0.64l0,0c-0.04-0.07-0.14-0.21-0.18-0.28
	c0-0.01,0-0.01-0.01-0.01l-0.02-0.01c0.16,0,0.32,0,0.47,0l-0.01,0.07c0.01,0.01,0.33,0.6,0.33,0.61
	C18.25,54.94,18.29,55.02,18.32,55.07z M17.72,55.11c-0.21,0.01-0.41,0.02-0.57,0.02c-0.01,0-0.02,0-0.04,0l0.01-0.04
	c-0.01-0.04-0.05-0.14-0.08-0.22v0c-0.03-0.07-0.04-0.1-0.08-0.18c-0.03-0.05-0.07-0.14-0.1-0.19c-0.17-0.27-0.24-0.36-0.29-0.4
	c0.24,0,0.47-0.01,0.69-0.01l-0.03,0.07c0.07,0.16-0.01,0.03,0.13,0.35v0c0.02,0.04,0.06,0.11,0.08,0.14
	C17.65,55.01,17.68,55.08,17.72,55.11z M16.95,55.13c-0.21,0-0.42,0-0.63,0c0.03-0.11,0.03-0.08-0.03-0.21
	c-0.1-0.22-0.2-0.44-0.36-0.63c-0.08-0.1-0.11-0.14-0.14-0.16c0.22-0.01,0.43-0.01,0.64-0.02c-0.02,0.08-0.02,0.07,0.04,0.2
	c0.13,0.29,0.18,0.35,0.27,0.5c0.03,0.05,0.07,0.12,0.1,0.16l0,0C16.92,55.07,16.94,55.11,16.95,55.13z M16.22,55.13
	c-0.21,0-0.42,0-0.63-0.01c0.04-0.11,0.06-0.09-0.13-0.45l0,0c-0.21-0.34-0.26-0.33-0.38-0.49l-0.11-0.02
	c0.23-0.01,0.46-0.01,0.69-0.02l-0.01,0.07c0.09,0.14,0.05,0.14,0.32,0.58h0C16.18,55.08,16.18,55.11,16.22,55.13z M15.56,55.12
	c-0.77-0.02-1.53-0.05-2.22-0.08l0.02-0.07c-0.06-0.15-0.09-0.19-0.17-0.34v0c-0.15-0.24-0.26-0.33-0.34-0.42
	c0.18,0,0.37-0.01,0.56-0.01c-0.01,0.06,0,0.07,0.14,0.33l0,0c0.01,0.02,0.06,0.09,0.07,0.12c0.3,0.42,0.25,0.36,0.39,0.4
	c0.03-0.14,0.05-0.07-0.13-0.43l0,0c-0.09-0.16-0.16-0.26-0.32-0.42c0.16,0,0.32-0.01,0.48-0.01c-0.01,0.07,0.02,0.05,0.16,0.31
	c0.06,0.06-0.02,0.02,0.37,0.5l0.12,0.03l0.02-0.12c-0.17-0.33-0.22-0.44-0.41-0.65c-0.03-0.03-0.05-0.05-0.06-0.07
	c0.24-0.01,0.49-0.02,0.73-0.02l-0.02,0.11c0.07,0.11,0.08,0.19,0.3,0.51C15.51,55.13,15.46,55.09,15.56,55.12z M13.21,55.03
	c-0.16-0.01-0.33-0.02-0.48-0.02l0.02-0.06c-0.08-0.21-0.19-0.36-0.32-0.51v0c-0.19-0.2-0.17-0.22-0.23-0.23c0.16,0,0.32,0,0.48,0
	l-0.01,0.04c0.04,0.11,0.19,0.35,0.37,0.56C13.15,54.95,13.19,55.01,13.21,55.03z M12.57,55c-0.2-0.01-0.4-0.02-0.58-0.03
	c0.03-0.09,0.04-0.09-0.13-0.36v0c-0.1-0.15-0.07-0.1-0.13-0.17c-0.2-0.22-0.12-0.18-0.26-0.23c0.21,0,0.42,0.01,0.64,0.01
	c-0.03,0.1-0.04,0.09,0.13,0.37c0.01,0.01,0.05,0.08,0.2,0.25C12.47,54.88,12.53,54.95,12.57,55z M11.87,54.96
	c-0.22-0.01-0.42-0.02-0.6-0.03l0.01-0.05c-0.29-0.45-0.4-0.57-0.59-0.72c0.16,0.01,0.37,0.02,0.7,0.04c0.03,0,0.05,0,0.08,0
	l-0.04,0.11c0,0,0.01,0.02,0.01,0.03c0.04,0.11,0.05,0.13,0.11,0.24C11.67,54.76,11.74,54.81,11.87,54.96L11.87,54.96z M9.5,30.22
	c-0.03-0.03-0.04-0.04-0.08-0.08c-0.51-0.49-0.97-0.91-1.3-1.22c0-0.28-0.01-0.55-0.01-0.83c0.52,0.56,0.61,0.6,1.3,1.16
	c0.04,0.04,0.07,0.06,0.09,0.08C9.5,29.62,9.5,29.91,9.5,30.22z M8.09,26.17c0.31,0.37,0.62,0.62,1.09,0.99l0,0
	c0.2,0.16,0.27,0.23,0.31,0.27c0,0.24,0,0.5,0,0.78c-0.15-0.15-0.31-0.28-0.4-0.33l-0.12,0.01L9,28c0.16,0.2,0.33,0.36,0.5,0.51
	c0,0.18,0,0.37,0,0.57c-0.29-0.28-0.59-0.55-0.74-0.68c-0.36-0.31-0.54-0.48-0.65-0.57c0-0.19,0-0.39-0.01-0.57
	c0.06,0.06,0.11,0.08,0.17,0.14c0.36,0.25,0.28,0.22,0.44,0.21c-0.03-0.14,0.03-0.09-0.3-0.39v0c-0.03-0.02-0.04-0.04-0.21-0.18l0,0
	c-0.05-0.04-0.07-0.06-0.1-0.08C8.1,26.66,8.09,26.4,8.09,26.17z M21.78,66.33c0.68,0.03,2.74,0,9.03,0.01v0c0.3,0,0.13-1,0.17,8.98
	c0,0.13,0,0.25,0,0.37c-0.04,0-0.12,0-0.34-0.02c-0.42-0.02-0.44-0.03-0.85-0.03c-0.73,0.02-0.62,0-0.73,0.11l0.08,0.08
	c0.71,0.07,1.26,0.06,1.84,0.04c0,0.16,0,0.32,0,0.46c-0.09-0.02-0.34-0.02-1.21-0.06c-1-0.03-2.71-0.09-5.64-0.09
	c-0.76,0-1.6,0.03-2.39-0.04c0,0-0.01,0.01-0.02,0.01c0-0.21,0-0.4,0-0.6c1.18,0.17,2.23,0.16,2.66,0.16c0.76,0,0.62,0.03,0.74-0.08
	c-0.13-0.14,0.19-0.08-3.39-0.26c0-0.28,0-0.57,0-0.85c0.05,0,0.13,0,0.25,0.01c1.26,0.07,0.95,0.06,2.04,0.1
	c1.62,0,1.39,0.06,1.54-0.07c-0.12-0.12,0.04-0.08-0.81-0.12c-1.19-0.06-1.41-0.09-2.77-0.09c-0.13,0-0.2,0-0.26,0
	c0-0.27,0-0.53,0-0.79c0.49,0.05,1.65,0.18,3.89,0.24c0.87,0.02,0.72,0.04,0.83-0.06c-0.11-0.12,0.04-0.08-0.83-0.13
	c-1-0.07-2.18-0.14-3.9-0.21c0-0.2,0-0.4,0-0.6c0.16,0.01,0.52,0,1.45,0.03c4.37,0.09,3.88,0.17,4.05,0.03
	c-0.11-0.11,0.08-0.08-1.11-0.15c-1.49-0.1-2.85-0.12-4.23-0.08c-0.07,0-0.12,0-0.16,0c0-0.24,0-0.49,0-0.72
	c0.39,0.07,0.77,0.1,0.93,0.1c0.74,0.01,0.64,0.02,0.76-0.08c-0.13-0.14,0.03-0.06-0.74-0.15c-0.09,0-0.65-0.03-0.94-0.05
	c0-0.29,0-0.56,0-0.84c0.42,0.02,2.18,0.08,3.3,0.11c2.29,0,1.97,0.09,2.13-0.06c-0.11-0.11-0.03-0.08-0.43-0.1
	c-3.54-0.16-3.46-0.12-5.01-0.12c0-0.25,0-0.51,0-0.75c0.57,0.07,0.57,0.08,1.54,0.05l0.1-0.08c-0.12-0.11,0-0.08-0.73-0.14h0
	c-0.14-0.01-0.28-0.02-0.48-0.02c-0.21,0-0.34,0-0.43,0c0-0.25,0-0.49,0-0.73c2.03,0.12,3.44,0.13,5.17,0.12
	c1.14,0,0.96,0.02,1.07-0.09c-0.12-0.11,0.07-0.08-1.07-0.11c-4.44-0.12-4-0.06-5.17-0.09c0-0.3,0-0.6,0.01-0.89
	c0.43,0.03,0.94,0.08,1.42,0.08c1.02,0.01,0.85,0.02,0.96-0.08c-0.11-0.12,0.05-0.08-0.96-0.16c-0.17-0.04-1.22-0.02-1.43-0.02
	C21.77,67.29,21.78,66.8,21.78,66.33z M30.19,65.98c-4.09,0.02-6.28,0.04-7.43,0.06c-0.02-0.14-0.02-0.29,0-0.39
	c0.13-0.89,0.85-0.58,1.78-0.58c1.58-0.05,1.73-0.13,3.93-0.09c0.52,0.01,1.17,0.03,1.56,0.36l0,0c0.01,0.01,0,0,0.01,0.01l0,0
	c0.19,0.16,0.19,0.4,0.16,0.53C30.2,65.94,30.19,65.96,30.19,65.98z M29.7,64.97c-1.09-0.4-3.32-0.21-5.22-0.12
	c-0.38,0-0.78-0.05-1.13-0.02c0-0.03,0-0.08,0.02-0.22c0.17-0.66,1.16-0.7,1.85-0.69c1.19,0.02,3.77-0.06,4.44,0.39l0,0.01
	c0.01,0.01,0,0,0.02,0.01l0,0C29.82,64.42,29.94,64.66,29.7,64.97z M30.38,63.91L30.38,63.91L30.38,63.91l0,0.01L30.38,63.91
	c-0.01,0.04-0.03,0.07-0.04,0.1c0-0.04-0.02-0.11-0.09-0.28c-0.03-0.04,0-0.03-0.15-0.26c0.03,0.02,0.07,0.04,0.1,0.06
	c0.13,0.11,0.13,0.14,0.18,0.26v0l0,0v0c0,0,0,0,0,0.01v0c0,0,0,0,0,0.01v0l0,0c0,0,0,0,0,0.01v0c0,0.01,0,0.02,0,0.02v0
	c0,0,0,0,0,0.01l0,0c0,0,0,0.01,0,0.01c0,0,0,0,0,0.01v0C30.38,63.91,30.38,63.91,30.38,63.91z M30.27,64.1
	c-0.07,0.06-0.16,0.11-0.28,0.13c0-0.02-0.01-0.04-0.03-0.09c-0.08-0.23-0.12-0.31-0.2-0.48c-0.17-0.25-0.25-0.37-0.3-0.42
	c0.1,0.03,0.06,0.04,0.18,0.04c0.09,0.03,0.16,0.06,0.24,0.08c-0.02,0.06-0.01,0.05,0.03,0.18c0.05,0.14,0.09,0.21,0.14,0.29v0
	c0.03,0.05,0.13,0.2,0.15,0.23L30.27,64.1z M29.88,62.81c-0.18,0.14-0.38,0.17-0.69,0.16c-0.71-0.11-1.97-0.21-3.42-0.16
	c-0.06,0-0.1,0-0.16,0c-1.45,0.02-0.77,0.03-1.42,0.08c-0.12,0.01-0.29,0-0.4-0.05l0,0l0,0c-0.01,0-0.01,0-0.01-0.01l0,0l0,0l0,0
	c0,0,0,0-0.01,0c-0.01-0.01-0.01-0.01-0.02-0.01c0,0,0,0-0.01-0.01l0,0l0,0l0,0c-0.01-0.01,0-0.01-0.01-0.01l0,0l0,0
	c0-0.01,0,0,0-0.01l0,0c0,0-0.01-0.02-0.01-0.02c0-0.01-0.01-0.01-0.01-0.03c-0.01-0.04-0.01-0.03-0.02-0.07c0-0.01,0-0.02,0-0.02
	c0-0.03,0-0.09,0-0.12c0-0.01,0-0.03,0.01-0.04l0,0c0-0.01,0,0,0-0.01c0,0,0,0,0-0.01c0.03-0.18,0.32-0.28,0.47-0.31
	c0.13-0.03,2.32-0.26,2.92-0.26c0.71-0.02,1.4,0.07,2.09,0.22c0.27,0.06,0.65,0.17,0.72,0.45l0.04,0.02L29.9,62.6
	c0.02,0.04,0.01,0.01,0.02,0.05v0l0,0l0,0c0,0,0,0,0,0.01v0l0,0l0,0l0,0l0,0l0,0l0,0c0,0,0,0,0,0.01v0l0,0v0l0,0v0v0v0l0,0l0,0l0,0
	v0v0c0,0,0,0,0,0l0,0c0,0,0,0,0,0.01l0,0v0l0,0v0v0v0c0,0,0,0.01,0,0.01v0l0,0l0,0l0,0l0,0l0,0l0,0v0c0,0,0,0,0,0l0,0l0,0
	c0,0,0,0,0,0l0,0l0,0l0,0v0c0,0,0,0,0,0.01l0,0c0,0,0,0,0,0.01l0,0c0,0,0,0,0,0.01l0,0c0,0,0,0,0,0.01l0,0c0,0,0,0,0,0.01
	c0,0,0,0,0,0h0l0,0l0,0c0,0,0,0,0,0c0,0,0,0,0,0C29.88,62.81,29.88,62.81,29.88,62.81L29.88,62.81L29.88,62.81
	C29.88,62.81,29.88,62.81,29.88,62.81z M23.63,63.66c-0.14-0.2-0.05-0.08-0.19-0.22c0,0,0.01,0.01-0.04-0.04l-0.04-0.01
	c0.08-0.08,0.17-0.14,0.27-0.17c0.02,0,0.06-0.01,0.08-0.02c0.01,0.03,0.04,0.07,0.11,0.16c0.1,0.14,0.12,0.15,0.18,0.22l0,0
	c0.17,0.18,0.18,0.2,0.23,0.22c-0.22,0.04-0.41,0.11-0.56,0.2c-0.03-0.01-0.08,0-0.28-0.11c-0.01-0.01-0.03-0.02-0.03-0.02
	c-0.04-0.03-0.04-0.04-0.08-0.08l0,0c0,0,0,0,0-0.01c0,0,0-0.01-0.01-0.02l0,0c-0.01-0.02,0-0.01-0.01-0.02
	c-0.01-0.03-0.01-0.03-0.02-0.06v0c0,0,0,0,0-0.01v0l0,0c0,0,0-0.01,0-0.01v0c0-0.01,0-0.01,0-0.02v0c0-0.01,0,0,0-0.01l0,0v0
	c0,0,0,0,0-0.01v0c0-0.01,0.01-0.03,0.01-0.04l0,0c0-0.01,0-0.01,0-0.02c0-0.01,0,0,0-0.01l0,0c0-0.01,0.01-0.01,0.02-0.02
	c0.05,0.15,0.1,0.22,0.17,0.3v0c0.19,0.19,0.17,0.15,0.28,0.16C23.73,63.8,23.75,63.88,23.63,63.66z M27.04,63.17
	c0.15,0.22-0.02,0.09,0.36,0.55c-1.34-0.07-2.72,0-2.9,0.02c-0.06,0.01-0.12,0.03-0.18,0.04c0.02-0.09,0.02-0.08-0.14-0.34
	c-0.09-0.09-0.07-0.12-0.25-0.27c0.12-0.02,0.27-0.03,0.44-0.05c0.03,0,0.07,0,0.1-0.01c0.01,0.08,0.07,0.16,0.4,0.55l0.12,0.03
	c0.02-0.11,0.06-0.08-0.09-0.36c-0.01-0.01-0.03-0.05-0.12-0.16h0c-0.04-0.04-0.06-0.06-0.09-0.08c0.15-0.01,0.32-0.02,0.52-0.03v0
	l0,0c0.11,0.19,0.09,0.19,0.22,0.36l0,0c0.2,0.24,0.1,0.18,0.27,0.24c0.04-0.12,0.06-0.09-0.08-0.37c-0.08-0.13-0.05-0.09-0.11-0.17
	h0c-0.03-0.03-0.05-0.05-0.07-0.08c0.08,0,0.15-0.01,0.24-0.01c0.23-0.01,0.43,0,0.63-0.01l-0.01,0.04c0,0.01,0.01,0.03,0.02,0.04
	c0.08,0.2,0.11,0.23,0.19,0.33v0c0.2,0.22,0.14,0.18,0.29,0.22c0.02-0.14,0.04-0.08-0.1-0.35l0,0c-0.14-0.23-0.17-0.23-0.22-0.28
	c0.35,0,0.67,0.01,0.95,0.02c0.01,0,0.02,0,0.03,0c0.01,0,0.01,0,0.02,0c0.12,0.01,0.22,0.01,0.32,0.02
	c-0.02,0.08-0.02,0.06,0.02,0.16c0.1,0.24,0.17,0.32,0.34,0.55c-0.19-0.02-0.4-0.04-0.6-0.05c0.01-0.05,0-0.08-0.11-0.3
	c-0.01-0.01-0.02-0.06-0.11-0.17v0c-0.19-0.22-0.17-0.18-0.29-0.2L27.04,63.17z M29.18,63.95c-0.01-0.02-0.02-0.04-0.03-0.08
	c-0.1-0.27-0.23-0.49-0.31-0.59c-0.06-0.08-0.09-0.11-0.11-0.14c0.27,0.02,0.44,0.04,0.56,0.06c-0.02,0.14-0.02,0.03,0.18,0.44v0
	c0.15,0.28,0.24,0.44,0.29,0.53C29.61,64.08,29.41,64.01,29.18,63.95z M28.93,63.89c-0.19-0.04-0.4-0.07-0.63-0.1l0.02-0.08
	c-0.08-0.2-0.15-0.34-0.28-0.51c-0.05-0.06-0.08-0.1-0.1-0.12c0.24,0.01,0.45,0.03,0.63,0.04c-0.02,0.07-0.02,0.07,0.13,0.38l0,0
	C28.78,63.65,28.81,63.69,28.93,63.89z M30.99,77.92c-2.3,0.01-5.39,0.01-9.27-0.01c0-0.06,0-0.13,0-0.22
	c1.1,0.1,2.07,0.09,3.07,0.06c0.53-0.02,0.43,0.01,0.54-0.1c-0.11-0.11,0-0.08-0.54-0.09c-0.11,0-2.28-0.03-3.07-0.03
	c0-0.13,0-0.29,0-0.48c1.01,0.05,1.85,0.05,2.88,0.03c3.84-0.08,3.3,0.05,3.46-0.09c-0.11-0.12-0.01-0.08-0.53-0.12
	c-1.99-0.1-3.1,0-5.81,0c0-0.17,0-0.37,0-0.59c0.31,0.09,1.9,0.12,8.04,0.18c0.91,0.02,1.14,0.03,1.22,0.01c0,0.19,0,0.36,0,0.51
	c-0.06-0.03-0.2-0.03-0.87-0.07c-0.14,0-0.26-0.02-0.72-0.02c-0.81,0.01-0.69-0.01-0.8,0.1c0.11,0.11-0.04,0.08,0.8,0.13
	c0.22,0.01,0.48,0.02,0.72,0.02c0.69-0.01,0.82,0,0.88-0.03c0,0.21,0,0.38,0,0.52c-0.04-0.04-0.07-0.03-0.43-0.06
	c-1.83-0.12-2.89-0.08-4.51-0.02c-0.19,0.01-0.13-0.02-0.24,0.09c0.13,0.12-0.27,0.11,4.12,0.11c0.98,0.01,1,0.05,1.05-0.01
	C30.99,77.81,30.99,77.87,30.99,77.92z M9.5,31.21c-0.1-0.09-0.22-0.2-0.37-0.35l0,0c-0.28-0.26-0.42-0.38-0.62-0.56
	c-0.17-0.15-0.28-0.26-0.37-0.34c0-0.26-0.01-0.5-0.01-0.76c0.32,0.35,0.66,0.68,1.16,1.09c0.1,0.08,0.17,0.14,0.22,0.18
	C9.5,30.71,9.5,30.96,9.5,31.21z M8.08,25.21c0.44,0.43,0.95,0.75,1.42,1.2c0,0.23,0,0.48,0,0.77c-0.07-0.07-0.16-0.16-0.31-0.29
	c-0.37-0.33-0.75-0.66-0.76-0.67c-0.18-0.16-0.28-0.26-0.34-0.32C8.09,25.62,8.09,25.4,8.08,25.21z M9.85,25.18
	C9.48,24.84,9.3,24.7,9.1,24.55c0.28,0,0.57,0,0.85,0.01c0.14,0.13,0.42,0.36,0.67,0.54c0.05,0.04,0.1,0.07,0.15,0.11
	c-0.42,0-0.69,0-0.87,0.01C9.88,25.21,9.87,25.2,9.85,25.18z M60.92,28.16c-0.08-0.12-0.26-0.33-0.69-0.81
	c-0.65-0.71-1.2-1.27-1.99-1.96c-0.54-0.47-0.82-0.71-0.98-0.84c0.36,0,0.72,0,1.08,0c0.03,0.04,0.09,0.09,0.34,0.29h0
	c0.08,0.06,0.52,0.39,0.53,0.4c0.17,0.14,0.1,0.12,0.26,0.12l0-0.12c-0.21-0.26-0.44-0.44-0.65-0.59h0
	c-0.07-0.05-0.12-0.07-0.16-0.1c0.56,0,1.12,0,1.67-0.01c0.28,0.23,0.78,0.64,1.16,0.92c-0.3,0-0.48,0.01-0.49,0.01
	C60.95,25.5,60.93,26.48,60.92,28.16z M89.46,26.66c-0.64-0.88-1.32-1.56-2.1-2.28c0.26,0,0.52,0,0.77,0
	c0.01,0.08,0.1,0.09,0.99,1.12c0.16,0.18,0.26,0.32,0.35,0.43C89.46,26.17,89.46,26.42,89.46,26.66z M66.67,52.9l-0.01-0.02
	c-0.02-0.03-0.04-0.05-0.08-0.06c-0.15-0.06-1.7,0.02-1.81,0.02c-0.19-0.58,0-1.13,0-2.23c0.14-0.08,0.23-0.13,0.58-0.17
	c0.08-0.01,4-0.06,4.27-0.06c0.92,0.01,0.8,0.04,0.9-0.06c-0.07,0.5-0.13,1.18-0.21,2.16c-0.13,1.74-0.36,2.81-0.32,2.93
	c0.01,0.02,0.01,0.01,0.02,0.03l0.01,0.01l0.02,0.01c0.06,0.03,1.68,0.1,1.72,0.1c0.12-0.04,0.06,0,0.32-1.28
	c0-0.11,0.1,1.47-0.25,3.2c-0.06,0.29-0.12,0.57-0.18,0.84l-0.02-0.01c-0.55,0.17-1.2,0.11-1.79,0.06
	c-1.81-0.15-3.17-0.07-3.38-0.07c0,0-0.01,0-0.01,0h0l0,0c-0.24,0-0.31-2.77,0.09-4.33C66.61,53.67,66.74,53.22,66.67,52.9z
	 M66.66,58.55c0.4,0.01-0.16-0.11,2.53-0.02c0.9,0.03,1.48,0.16,2.24,0.01c0.09-0.02,0.14-0.03,0.18-0.04
	c-0.53,2.36-1.08,3.98-1.05,4.22l0,0.02l0.01,0.02c0.01,0.01,0,0,0.01,0.02l0.01,0.01l0,0c0.07,0.04,0.47,0.14,1.03,0.22
	c0.04,1.77-0.04,5.58,0.05,6.32c0.06,0.5,0.26,2.06,0.01,2.49c-0.12,0.17-0.75,0.12-0.93,0.12c-0.96-0.08-0.98-0.17-1.09-0.17
	c-0.02-0.37-0.05-1.44-0.09-2.72c0.01-0.01,0.01-0.01,0.02-0.02l-0.02-0.02c-0.08-2.47-0.21-5.68-0.36-6.06l-0.01-0.02
	c-0.04-0.04-0.06-0.05-0.11-0.05l-0.02,0c-0.02,0.01-0.01,0-0.04,0.02l-0.02,0.01c-0.03,0.03-0.03,0.04-0.04,0.07
	c0,0.11-0.16,1.44-0.4,4.05c-0.07,0.76-0.12,1.4-0.16,1.94c0,0.01,0,0-0.01,0.01c0,0.01,0,0,0.01,0.01
	c-0.14,1.81-0.15,2.5-0.28,2.77l0,0c-0.46-0.02-1.31,0.04-1.81-0.21l0,0c-0.01,0,0,0-0.01,0c-0.01,0-0.01-0.01-0.02-0.01l0,0
	c0,0,0,0,0,0c0,0,0,0,0,0l0,0l0,0l0,0l0,0c0,0,0,0-0.01-0.01l0,0l0,0l0,0c-0.19-0.19-0.01-0.67,0.15-2.46
	c0.01-0.02,0.01-0.04,0.01-0.06c0,0,0-0.01,0-0.01c0.08-0.89,0.14-2.09,0.16-3.73C66.59,60.02,66.68,58.86,66.66,58.55z
	 M68.73,67.98c0.44-5.02,0.36-5.03,0.54-0.7c0.03,0.6,0.05,1.12,0.06,1.57c-0.01,0-0.03-0.01-0.06-0.01h-0.04l-0.08-0.02h-0.03
	l-0.09-0.02c-0.23,0-0.27,0.02-0.38,0.03C68.68,68.56,68.71,68.28,68.73,67.98z M73.51,72.13c1.13-6.46,2.2-12.31,2.28-16.15
	c0.01-0.41,0.11-1.92-0.03-2.1l0,0c0-0.01-0.01-0.01-0.02-0.02c-0.01-0.01-0.01-0.01-0.02-0.02c-0.01-0.01,0,0-0.01-0.01
	c-0.04-0.02-0.06-0.03-0.09-0.02l-0.01,0c-0.03,0.01-0.05,0.01-0.07,0.03c0,0-0.01,0.01-0.02,0.02c-0.46,0.46-0.98,4.88-1.22,6.61
	c-0.02,0.12,0.19,0.11-1.34-0.08c0.42-3.2,1.03-6.58,2.46-11.87h0l0.03-0.1c3.39,0.74,4.12,0.68,6.4,0.08c0,0,0,0,0.01,0h0
	l0.03,0.01l0.02-0.01c1.69,7.69,1.73,9.16,2.04,11.92c-0.4,0.11-1.06,0.25-1.41,0.25c-0.03-0.17-0.24-1.48-0.47-2.9
	c0,0,0.01-0.01,0.01-0.01c-0.01-0.01-0.01-0.01-0.02-0.02c-0.3-1.81-0.64-3.79-0.7-3.86c-0.12-0.11-0.26-0.06-0.3,1.43
	c0,0.72,0.04,1.52,0.1,2.38c0,0,0,0-0.01,0.01c0,0,0,0,0.01,0.01c0.33,4.55,1.41,10.69,2.09,14.38c-1.12,0-1.99,0.01-2.71,0.01
	c-0.02-0.02-0.04-0.03-0.07-0.03c-0.05,0.02-0.06,0.02-0.07,0.03C76.75,72.11,77.57,72.11,73.51,72.13z M81.3,54.6
	c0.15,0.84,0.33,1.95,0.51,3c-0.04-0.01-0.09-0.02-0.17-0.03c-0.16,0.01-0.24,0.01-0.3,0.03C81.27,56.42,81.24,55.39,81.3,54.6z
	 M61.53,41.31c2.05,0.21,19.74,0.19,24.16,0.24c0.77,0,1.1,0.02,1.26,0.02c0.01,1.5,0.01,3.06,0.02,4.65c-0.21,0-0.61,0.01-1.43,0
	c-1.24,0-3.81-0.03-6.43-0.06c0-0.03,0-0.06-0.01-0.09c-0.03-0.07,0-0.03-0.04-0.1c0,0-0.01-0.02-0.02-0.03
	c-0.04-0.05-0.1-0.09-0.16-0.11c-0.01,0-0.02,0-0.03-0.01c-0.01,0-0.04-0.01-0.05-0.01c-0.01,0-0.01,0-0.02,0
	c-0.13,0-0.2,0.05-0.27,0.12c-0.01,0.01-0.01,0.02-0.02,0.02c-0.01,0.01-0.02,0.03-0.03,0.05c-0.03,0.08-0.03,0.1-0.01,0.13
	c-1.38-0.02-2.74-0.03-3.91-0.05c-0.02-0.1-0.06-0.2-0.16-0.24l-0.01,0c-0.05-0.02-0.1-0.01-0.13,0l-0.01,0
	c-0.09,0.03-0.15,0.07-0.22,0.14l-0.01,0.1c-1.61-0.02-2.76-0.04-2.9-0.04c-0.65-0.01-1.26-0.02-1.83-0.03
	c-0.02-0.03-0.04-0.06-0.06-0.08l-0.01,0c-0.1-0.1-0.25-0.12-0.4,0l-0.01,0.01l-0.01,0.08c-5.7-0.09-6.94-0.17-7.24-0.16
	C61.56,44.37,61.54,42.85,61.53,41.31z M74.56,46.35c1.47,0.02,2.94,0.04,4.32,0.05c0,0.04,0,0.09-0.01,0.13
	c-0.01,0.12-0.02,0.22-0.03,0.33c-1.33-0.03-2.78-0.05-4.31-0.07c0-0.03,0-0.04,0.01-0.08c0-0.04,0-0.02,0-0.06l0,0
	C74.55,46.55,74.56,46.45,74.56,46.35z M74.38,47.35L74.38,47.35L74.38,47.35L74.38,47.35C74.38,47.34,74.38,47.35,74.38,47.35
	L74.38,47.35l0.01,0l0,0l0,0l0,0l0,0h0l0,0h0h0h0l0,0l0,0c0,0,0,0,0,0c0.37,0,0.82,0.39,1.12,0.64c0.08,0.07,0.13,0.11,0.16,0.14
	c-0.25,0.05-0.24,0.06-0.27,0.11c-0.02,0-0.05-0.01-0.05-0.01c-0.07,0.02-0.2,0.34-0.34,0.86c-0.16-0.01-0.63,0.05-2.33,0.12
	c-0.54,0.01-0.94-0.05-1.24-0.06c1.02-0.48,2.21-1.23,2.32-1.33C73.95,47.66,74.21,47.41,74.38,47.35z M70.94,49.52
	c0.05-0.08,0.08-0.1,0.1-0.12l0,0c0,0,0,0,0,0c0.13-0.09,0.43-0.06,0.57-0.05c1.4,0.11,2.04-0.06,3.36-0.09
	c-0.66,2.42-1.81,8.33-1.9,8.88c-0.02,0.11-0.36,2.27-0.33,2.38c0.01,0.03,0.02,0.03,0.04,0.05l0.01,0.01l0.02,0
	c0.02,0,1.53,0.19,1.57,0.19l0.02,0c0.04-0.01,0.06-0.02,0.08-0.07c0.16-0.67,0.56-5.07,1.13-6.53c0,1.4-0.07,2.59-0.09,3.08
	c-0.1,1.61-0.37,3.65-0.69,5.72c-0.08,0-0.25,0.04-0.79,0.05c-1.03,0.02-2.24-0.14-3.26-0.38c0.46-1.7,1.18-4.33,1.43-5.88
	c0.12-0.83,0.16-3.05,0.06-3.29c0-0.01,0,0-0.01-0.01c-0.01-0.02-0.01-0.02-0.03-0.04L72.2,53.4c-0.02-0.01-0.01-0.01-0.03-0.01l0,0
	l-0.02,0c0,0-0.02,0-0.02,0c-0.02,0-0.01,0-0.03,0l-0.01,0l-0.02,0.01c-0.03,0.02-0.03,0.02-0.04,0.04c0,0.01,0,0-0.01,0.01
	c0,0.01,0,0.01-0.01,0.03c-0.09,0.23-0.36,1.65-0.4,1.86l-1.4-0.07c0.01-0.11,0.15-1.17,0.25-2.11
	C70.59,52.06,70.61,49.97,70.94,49.52z M79.27,47.52c0.15,0.05,1.33,0.59,2.24,0.88c-0.3,0.08-0.79,0.19-1.59,0.32
	c-0.97,0.15-1.26,0.09-2.52-0.12c-0.64-0.11-1.27-0.23-1.66-0.31c0.11-0.02,0.25-0.05,0.46-0.09c0.52-0.1,1.44-0.33,1.76-0.46
	C78.11,47.73,78.6,47.29,79.27,47.52z M74.51,47c1.31,0.02,2.75,0.04,4.33,0.07c0,0.04,0,0.08,0.01,0.13
	c-0.47,0.01-0.61,0.28-2.09,0.67c-0.43,0.1-0.7,0.17-0.9,0.21l0-0.04c-0.03-0.02-0.43-0.39-0.62-0.55
	c-0.33-0.26-0.56-0.36-0.75-0.37C74.5,47.1,74.5,47.06,74.51,47z M86.97,47.13c-1-0.1-3.91-0.2-7.91-0.28
	c0.02-0.15,0.05-0.3,0.06-0.45c3.78,0.03,6.91,0.02,7.85-0.06C86.97,46.6,86.97,46.87,86.97,47.13z M78.87,46.1
	c0,0.01,0,0.04,0.01,0.05c-0.09,0-0.18,0-0.28,0c0,0,0-0.01,0-0.01v0c0-0.01,0,0,0-0.01v0c0-0.01,0,0,0-0.01v0l0,0l0,0l0,0
	c0,0,0,0,0-0.01l0,0c0,0,0,0,0-0.01l0,0c0,0,0,0,0-0.01v0c0,0,0,0,0-0.01l0,0c0-0.01,0,0,0-0.01l0,0c0,0,0,0,0.01-0.01l0,0
	c0,0,0,0,0.01-0.01l0,0l0,0l0,0l0,0c0,0,0,0,0.01,0l0,0c0,0,0,0,0.01,0l0,0l0,0l0,0c0,0,0,0,0.01,0l0,0l0,0l0,0l0,0l0,0h0
	c0,0,0,0,0.01,0l0,0c0,0,0,0,0.01,0l0,0c0,0,0,0,0.01,0l0,0l0,0l0,0c0,0,0,0,0.01,0h0c0,0,0,0,0.01,0h0c0,0,0,0,0.01,0l0,0
	c0,0,0,0,0.01,0h0c0,0,0,0,0.01,0l0,0l0,0h0l0,0h0h0h0l0,0l0,0l0,0h0h0c0,0,0,0,0,0h0h0l0,0c0,0,0,0,0,0s0,0,0,0h0l0,0c0,0,0,0,0,0
	l0,0h0h0h0l0,0h0c0,0,0,0,0.01,0l0,0c0,0,0,0,0.01,0h0c0,0,0,0,0.01,0h0c0,0,0,0,0.01,0h0l0,0l0,0l0,0h0h0l0,0l0,0l0,0h0l0,0l0,0h0
	c0,0,0,0,0.01,0l0,0c0,0,0,0,0.01,0l0,0c0,0,0,0,0.01,0h0c0,0,0,0,0,0l0,0l0,0h0l0,0l0,0l0,0l0,0l0,0l0,0l0,0l0,0l0,0l0,0h0l0,0l0,0
	l0,0l0,0l0,0l0,0l0,0l0,0l0,0c0,0,0,0,0,0l0,0c0,0,0,0,0,0.01l0,0c0,0,0,0,0,0l0,0c0,0,0,0,0,0.01l0,0
	C78.85,46.1,78.85,46.1,78.87,46.1l-0.01-0.01L78.87,46.1L78.87,46.1L78.87,46.1z M74.31,46.09C74.31,46.09,74.31,46.1,74.31,46.09
	c-0.05,0.01-0.1,0.01-0.15,0.01c0.02-0.01,0.04-0.02,0.08-0.04h0c0.01,0,0,0,0.01,0l0,0c0,0,0.01,0,0.01,0l0,0c0,0,0,0,0.01,0l0,0
	c0,0,0,0,0.01,0l0,0l0,0h0h0l0,0h0h0h0h0h0h0h0h0h0h0h0h0h0h0l0,0l0,0l0,0l0,0l0,0l0,0h0h0l0,0h0l0,0l0,0l0,0h0l0,0h0l0,0h0l0,0l0,0
	l0,0l0,0l0,0l0,0l0,0l0,0v0l0,0l0,0l0,0l0,0v0l0,0l0,0l0,0l0,0l0,0l0,0l0,0l0,0l0,0l0,0c0,0,0,0,0,0l0,0l0,0c0,0,0,0,0,0.01l0,0
	c0,0.01,0,0,0,0.01v0C74.31,46.08,74.31,46.08,74.31,46.09L74.31,46.09L74.31,46.09L74.31,46.09L74.31,46.09z M87.03,57.67
	c-1.31-0.14-2.96-0.04-3.22-0.04c-0.25-1.81-0.7-4.47-1.78-9.26l-0.04,0.01l0.05-0.01c-0.02-0.07-0.07-0.08-0.21-0.04
	c-0.93-0.27-2.23-1.01-2.8-1.1c0-0.05,0.01-0.09,0.01-0.14c0.24,0,0.46,0.01,0.7,0.01c4.97,0.08,6.64,0.17,7.23,0.19
	C86.99,50.71,87.01,54.25,87.03,57.67z M73.82,68.87c-0.16-0.01-0.52-0.06-0.95-0.06c-0.63,0.01-0.9,0.03-1.03,0.06
	c-0.05-1.44,0-4.72-0.05-5.8c0-0.02,0-0.03,0-0.04c0.85,0.12,1.99,0.22,2.9,0.12c0.04,0,0.07-0.01,0.1-0.01
	C74.47,65.18,74.11,67.23,73.82,68.87z M67.23,50.22c0.04-0.03,0.08-0.07,0.15-0.12c1.32-1.02,1.04-1.03,1.79-2
	c0.22,0.24,0.93,0.97,1.16,1.26c0.2,0.25,0.26,0.35,0.3,0.4c-0.04,0.15-0.08,0.33-0.12,0.56C70.41,50.2,70.68,50.21,67.23,50.22z
	 M69.46,46.94c1.38,0.02,2.98,0.04,4.85,0.07c0,0.08,0,0.12,0,0.15c-0.29,0.08-0.56,0.39-1.12,0.74c-2.15,1.35-2.13,1.18-2.16,1.3
	c-0.14,0.05-0.25,0.16-0.33,0.36c-0.33-0.57-0.54-0.77-1.09-1.29c-0.3-0.27-0.33-0.31-0.38-0.32c0.11-0.23,0.2-0.43,0.23-0.76
	C69.46,47.14,69.46,47.05,69.46,46.94z M69.46,46.72c-0.01-0.16-0.03-0.32-0.07-0.46c1.57,0.03,3.25,0.06,4.94,0.08
	c0,0.12-0.01,0.25-0.01,0.34c0,0.03,0,0.06,0,0.08C72.77,46.75,71.14,46.73,69.46,46.72z M69.21,46.72c-0.39,0-0.78-0.01-1.18-0.01
	c-4.27-0.04-5.86-0.06-6.46-0.06c0-0.22,0-0.45,0-0.67c0.65,0.1,3.74,0.2,7.57,0.28C69.18,46.38,69.21,46.53,69.21,46.72z
	 M61.53,41.25c0-0.2,0-0.4,0-0.6c1.49,0.23,19.76,0.2,24.26,0.25c0.64,0,0.97,0.01,1.16,0.02c0,0.16,0,0.31,0,0.47
	c-0.03,0-0.07,0-0.12,0C85.1,41.35,63.76,41.14,61.53,41.25z M61.39,25.98c3.82,0,7.05,0,9.82-0.01c-0.09,0.57-0.15,1.38-0.14,2.19
	c-0.39,0.07-0.94,0.86-2.37,2.38c-1.31,1.39-1.36,1.23-1.37,1.36c-0.03,0.01-0.04,0.03-0.08,0.07c0.11,0.12-0.22,0.08,2.26,0.24
	c0.32,0.02,0.66,0.04,1,0.05c-0.23,0.4-0.05,1.01,0.48,1.12c0.02,0,0.05,0.01,0.06,0.01c0.01,0,0.02,0,0.03,0l0,0
	c0.7,0,0.73-0.79,0.28-1.11c0.87,0.02,1.75,0,2.54-0.08c0.9-0.08,0.79-0.07,0.87-0.18c-0.07-0.06-0.07-0.07-0.16-0.07
	c0-0.08-0.17-0.1-2.48-2.76c-0.36-0.39-0.3-0.49-0.77-0.95c-0.04-0.03-0.07-0.04-0.11-0.06c0-0.09,0.01-0.25,0.04-0.53
	c0.09-1.29,0.11-1.58,0.08-1.68c4.53-0.01,7.77-0.02,10.05-0.03l-0.01,0.01c-0.12,1.53-0.2,2.58-0.16,4.25
	c0.01,0.39,0,0.43,0.03,0.47c-0.27,0.02-0.71,0.47-0.98,0.72l0,0c-0.65,0.62-1.15,1.4-2.15,2.35c-0.1,0.08-0.08,0.07-0.08,0.15
	c-0.01,0.01-0.02,0.02-0.03,0.03c0.12,0.12-0.08,0.07,1.07,0.11c0.81,0.02,1.44,0.04,2,0.05c-0.09,0.03-0.08,0.01-0.14,0.15
	c-0.04,0.11-0.05,0.22-0.01,0.32v0c0.05,0.11,0.15,0.21,0.33,0.25c0.02,0,0.01,0.01,0.1,0.02c0.43,0.04,0.89-0.29,0.63-0.75
	c0.74-0.02,1.44-0.07,2.44-0.18l0.07-0.09l-0.09-0.07c-1.63,0.14-2.21,0.11-6.11,0.11c-0.01,0-0.01,0-0.02,0
	c0.97-0.86,2.41-2.75,2.96-2.93c0.03-0.01,0.03-0.01,0.03-0.01c0.13,0,1.6,1.34,1.83,1.55c1.5,1.4,1.25,1.3,1.46,1.3
	c0-0.14,0.02-0.09-0.09-0.21c-0.29-0.3-0.8-0.83-1.22-1.25c-0.2-0.2-1.52-1.44-1.87-1.61c0.04-0.05,0.03-0.07,0.04-0.48
	c0.01-0.71,0.06-1.63,0.09-2.62l0,0c0.04-1.31,0.06-1.55,0.03-1.63c5.96-0.02,5.42-0.04,5.42,0.05c-0.06,1.53-0.06,7.43-0.04,14.75
	c-0.01,0-0.01,0-0.02,0c-1.75-0.05-23.77-0.26-25.4-0.14C61.49,35.79,61.44,30.84,61.39,25.98z M81.15,34.09c0.24,0,0.47,0,0.69,0
	c0,0,0,0,0,0c0.04,0.08,0.06,0.13,0.06,0.22l0,0v0l0,0c0,0.01,0,0,0,0.01v0c0,0.01,0,0,0,0.01v0c0,0.01,0,0,0,0.01v0
	c0,0.01,0,0,0,0.01l0,0c0,0.01,0,0,0,0.01l0,0c0,0,0,0,0,0.01l0,0v0c0,0,0,0,0,0c0,0,0,0,0,0.01l0,0c0,0,0,0,0,0.01l0,0l0,0l0,0
	c0,0.01,0,0,0,0.01l0,0c0,0.01,0,0-0.01,0.01l0,0c0,0.01,0,0-0.01,0.01l0,0l0,0l0,0l0,0c0,0,0,0-0.01,0.01l0,0c0,0,0,0-0.01,0.01
	l0,0c0,0,0,0-0.01,0.01c-0.04,0.04-0.01,0.01-0.06,0.05c-0.01,0-0.01,0.01-0.02,0.01c-0.11,0.11-0.41,0.1-0.54,0.04l0,0l0,0h0
	c0,0,0,0-0.01,0l0,0c-0.01,0,0,0-0.01-0.01l0,0c0,0,0,0-0.01-0.01l0,0c0,0,0,0-0.01-0.01h0l0,0l0,0l0,0c0,0,0,0-0.01-0.01l0,0
	c0,0,0,0,0,0c0,0,0,0-0.01-0.01l0,0c0-0.01,0,0-0.01-0.01l0,0c0,0,0,0,0-0.01l0,0c0-0.01,0,0,0-0.01l0,0c0,0,0,0,0-0.01l0,0
	c0,0,0,0,0-0.01l0,0v0l0,0v0c0-0.01,0,0,0-0.01c0,0,0,0,0,0v0l0,0c0,0,0,0,0-0.01v0c0-0.01,0,0,0-0.01v0l0,0v-0.01v0
	c0-0.01,0,0,0-0.01l0,0c0-0.01,0,0,0-0.01v0c0-0.01,0,0,0-0.01v0c0-0.01,0-0.01,0-0.01c0-0.05,0-0.05,0-0.06
	C81.19,34.14,81.2,34.23,81.15,34.09z M70.69,32.28c0.19,0.01,0.39,0.01,0.59,0.01l-0.04,0.01l0.02,0.12l0.01,0.01h0
	c0.15,0.15,0.17,0.26,0.19,0.4c0,0.01,0,0.04,0,0.06c0,0.05,0,0.06-0.04,0.14l0,0l0,0.01c0,0-0.02,0.02-0.02,0.03
	c-0.01,0.01-0.01,0.02-0.02,0.02l0,0c-0.01,0.01,0,0-0.01,0.01l0,0c-0.01,0.01,0,0-0.01,0.01l0,0c-0.01,0.01-0.01,0.01-0.01,0.01
	l0,0c-0.01,0.01,0,0-0.01,0.01c-0.01,0,0,0-0.01,0.01c-0.05,0.03-0.11,0.04-0.16,0.05c-0.17,0.01-0.26-0.05-0.36-0.13l0,0
	C70.6,32.87,70.52,32.52,70.69,32.28z M67.56,31.89c0.55-0.47,1.14-1.03,1.59-1.51c0.89-0.93,1.63-1.85,1.95-1.98l0,0l0,0
	c0.01,0,0.01,0,0.02-0.01h0h0c0.27,0,0.31,0.63,2.84,3.16c0.26,0.26,0.38,0.38,0.46,0.43c-0.21,0.02-0.6,0.05-1.4,0.08
	c-0.63,0.02-1.55,0.01-2.18-0.01C68.69,31.98,67.88,31.91,67.56,31.89z M61.73,25.41c-0.43-0.39-0.7-0.63-1.06-0.88
	c0.32,0,0.63,0,0.94,0c0.38,0.31,0.71,0.58,1.2,0.92c-0.41,0-0.75,0.01-1.03,0.01C61.76,25.44,61.75,25.43,61.73,25.41z
	 M61.97,24.53c0.39,0,0.78,0,1.17-0.01c0.11,0.1,0.35,0.3,0.87,0.74c0.1,0.08,0.16,0.13,0.21,0.18c-0.4,0-0.77,0-1.11,0.01
	c-0.02-0.02-0.06-0.05-0.11-0.09C62.5,24.94,62.28,24.75,61.97,24.53z M63.46,24.52c0.35,0,0.71,0,1.06,0
	c0.33,0.31,0.6,0.57,1.04,0.92c-0.38,0-0.74,0-1.08,0c-0.04-0.06-0.13-0.15-0.33-0.35C63.87,24.82,63.64,24.65,63.46,24.52z
	 M64.86,24.52c0.41,0,0.81,0,1.22-0.01c0.18,0.17,0.5,0.45,1.07,0.92c-0.45,0-0.88,0-1.29,0c-0.47-0.44-0.79-0.79-0.9-0.84
	C64.91,24.56,64.89,24.55,64.86,24.52z M66.41,24.51c0.27,0,0.55,0,0.82,0c0.35,0.34,0.75,0.64,1.1,0.92c-0.31,0-0.61,0-0.91,0
	c-0.03-0.03-0.06-0.06-0.11-0.11C66.78,24.8,66.56,24.63,66.41,24.51z M67.54,24.5c0.24,0,0.47,0,0.7,0
	c0.08,0.08,0.16,0.16,0.26,0.25l0,0c0.35,0.3,0.57,0.43,0.88,0.68c-0.27,0-0.53,0-0.8,0C68.22,25.03,67.84,24.73,67.54,24.5z
	 M68.57,24.5c0.29,0,0.59,0,0.88,0c0.15,0.16,0.36,0.37,0.53,0.52c0.23,0.19,0.38,0.32,0.5,0.41c-0.27,0-0.54,0-0.81,0
	C69.33,25.09,68.95,24.78,68.57,24.5z M69.73,24.49c0.26,0,0.51,0,0.76,0c0.04,0.18-0.05,0,0.52,0.51h0
	c0.22,0.19,0.39,0.32,0.52,0.43c-0.25,0-0.51,0-0.76,0c-0.08-0.09-0.26-0.25-0.64-0.6c-0.01-0.01-0.15-0.12-0.18-0.15v0
	C69.86,24.6,69.79,24.54,69.73,24.49z M70.67,24.49c0.42,0,0.83,0,1.24-0.01c0.24,0.3,0.48,0.51,0.74,0.71
	c0.12,0.08,0.15,0.11,0.26,0.19v0c0.04,0.02,0.05,0.03,0.08,0.05c-0.38,0-0.75,0-1.13,0c-0.33-0.32-0.59-0.57-0.99-0.82
	C70.76,24.54,70.71,24.51,70.67,24.49z M72.17,24.48c0.31,0,0.62,0,0.92,0c0.23,0.19,0.48,0.39,0.8,0.61l0,0
	c0.27,0.18,0.4,0.29,0.48,0.36c-0.36,0-0.72,0-1.08,0c-0.03-0.04-0.1-0.09-0.27-0.22h0c-0.05-0.04-0.19-0.16-0.24-0.2
	C72.48,24.75,72.3,24.59,72.17,24.48z M73.43,24.47c0.38,0,0.75,0,1.12-0.01c0.16,0.16,0.37,0.36,1.16,0.94
	c0.02,0.02,0.03,0.02,0.04,0.03c-0.39,0-0.77,0-1.16,0c-0.01-0.06-0.06-0.12-0.34-0.36c-0.26-0.22-0.42-0.34-0.73-0.55
	C73.48,24.51,73.46,24.49,73.43,24.47z M74.88,24.46c0.31,0,0.62,0,0.92,0c0.3,0.3,0.57,0.59,1.16,0.99c-0.31,0-0.63,0-0.94,0
	c-0.01-0.03-0.05-0.06-0.18-0.18C75.53,24.99,75.16,24.69,74.88,24.46z M76.09,24.46c0.23,0,0.46,0,0.69,0
	c0.05,0.06,0.1,0.12,0.19,0.2c0.24,0.24,0.45,0.38,0.72,0.59c0.15,0.12,0.22,0.17,0.27,0.21c-0.24,0-0.49,0-0.73,0
	c-0.01-0.04-0.02-0.04-0.11-0.12C76.97,25.21,76.48,24.78,76.09,24.46z M77.08,24.45c0.3,0,0.6,0,0.9,0c0.13,0.12,0.41,0.34,1,0.84
	l0,0c0.1,0.08,0.16,0.14,0.2,0.17c-0.34,0-0.69,0-1.05-0.01c0-0.1,0.01-0.08-0.53-0.57l0,0C77.31,24.64,77.18,24.53,77.08,24.45z
	 M78.31,24.44c0.26,0,0.53,0,0.79,0c0.14,0.15,0.34,0.35,0.85,0.79c0.15,0.13,0.23,0.2,0.28,0.24c-0.28,0-0.57,0-0.86-0.01
	c0-0.06-0.04-0.1-0.36-0.43C78.79,24.8,78.59,24.63,78.31,24.44z M79.42,24.44c0.34,0,0.68,0,1.02-0.01
	c0.35,0.41,0.23,0.31,1.01,0.97c0.06,0.05,0.08,0.07,0.1,0.09c-0.36,0-0.72-0.01-1.09-0.01c0-0.06-0.04-0.08-0.36-0.4
	C79.89,24.87,79.72,24.7,79.42,24.44z M80.69,24.43c0.26,0,0.51,0,0.76,0c0.05,0.08,0.19,0.23,0.58,0.61
	c0.03,0.03,0.19,0.16,0.22,0.19l0,0c0.15,0.12,0.25,0.21,0.33,0.27c-0.29,0-0.59-0.01-0.9-0.01l0-0.11
	C80.98,24.64,81.01,24.73,80.69,24.43z M81.71,24.42c0.28,0,0.57,0,0.85,0c0.39,0.38,0.57,0.51,0.75,0.67l0,0
	c0.33,0.27,0.44,0.39,0.5,0.44c-0.29-0.01-0.6-0.01-0.92-0.02c-0.06-0.06-0.18-0.18-0.46-0.45l0,0c-0.23-0.21-0.11-0.11-0.52-0.47
	C81.81,24.51,81.75,24.47,81.71,24.42z M82.86,24.42c0.33,0,0.67,0,0.99-0.01c0.13,0.17,0.3,0.4,0.5,0.58
	c0.33,0.3,0.5,0.47,0.6,0.56c-0.3-0.01-0.64-0.02-0.98-0.02l0-0.07c-0.18-0.23-0.4-0.43-0.51-0.54v0c-0.18-0.16-0.24-0.22-0.53-0.44
	C82.9,24.45,82.89,24.44,82.86,24.42z M84.09,24.41c0.29,0,0.57,0,0.86-0.01l0,0.04c0.4,0.53,0.58,0.67,1.04,1.05
	c0.05,0.04,0.09,0.07,0.12,0.1c-0.28-0.01-0.58-0.02-0.93-0.03c-0.02-0.08-0.13-0.2-0.66-0.74C84.3,24.62,84.18,24.5,84.09,24.41z
	 M85.13,24.4c0.29,0,0.57,0,0.85-0.01c0.1,0.13,0.4,0.41,1.25,1.26c-0.19-0.02-0.48-0.04-0.88-0.06c-0.01-0.04-0.04-0.07-0.24-0.26
	C85.91,25.14,85.31,24.58,85.13,24.4z M86.22,24.39c0.29,0,0.59,0,0.87-0.01c0.03,0.03,0.05,0.05,0.1,0.1
	c1.09,1.09,1.75,1.85,2.26,2.51c0,0.28,0,0.55,0,0.82c-0.09-0.11-0.19-0.24-0.33-0.41l0,0c-0.55-0.66-0.94-1.13-1.59-1.78
	c-0.33-0.32-0.92-0.83-1.11-1.03C86.33,24.51,86.27,24.45,86.22,24.39z M89.04,75.52c-0.11-0.12-0.22-0.24-0.33-0.35h0
	c-0.52-0.5-0.46-0.41-0.58-0.41c0,0.15-0.07,0.04,0.41,0.58c0.04,0.08,0.28,0.3,0.5,0.51c0,0.37,0,0.74,0,1.12
	c-0.19-0.2-0.36-0.39-0.5-0.52c-0.58-0.57-0.75-0.76-0.83-0.83c-0.01-9.43-0.36-35.89-0.33-46.16c0.04,0.05,0.1,0.12,0.23,0.28
	c0.38,0.38,0.3,0.35,0.48,0.36l0-0.12c-0.38-0.54-0.41-0.52-0.65-0.7l-0.06,0c0-0.37,0-0.72,0.01-1.04
	c0.13,0.14,0.33,0.33,0.62,0.65c0.63,0.66,0.41,0.56,0.63,0.6c0.02-0.16,0.07-0.05-0.19-0.42c-0.08-0.11-0.19-0.24-0.27-0.34
	c-0.28-0.32-0.52-0.54-0.79-0.76c0-0.36,0.01-0.7,0.01-0.99c0.09,0.11,0.2,0.23,0.28,0.32c0.37,0.37,0.29,0.32,0.44,0.33
	c0.01-0.14,0.05-0.07-0.27-0.48v0c-0.19-0.22-0.06-0.07-0.23-0.25l0,0c-0.07-0.07-0.15-0.13-0.22-0.19c0.01-0.32,0.01-0.59,0.02-0.8
	c0.48,0.5,1.08,1.15,1.49,1.63c0.25,0.29,0.41,0.48,0.52,0.61c0,0.27,0,0.55,0,0.81c-0.18-0.22-0.37-0.44-0.59-0.65l-0.12-0.01
	l-0.01,0.12c0.16,0.19,0.04,0.12,0.55,0.7c0.07,0.07,0.12,0.13,0.17,0.18c0,0.32,0,0.61,0,0.91c-0.08-0.1-0.17-0.18-0.27-0.27
	c0,0-0.04-0.04-0.04-0.04l-0.12-0.01l-0.01,0.12c0.08,0.11,0.11,0.21,0.29,0.4c0.01,0.01,0.08,0.09,0.14,0.16c0,0.3,0,0.61,0,0.9
	c-0.2-0.31-0.28-0.36-0.33-0.45c-0.04-0.04-0.15-0.19-0.18-0.23c-0.1-0.13-0.05-0.1-0.19-0.14l-0.03,0.11
	c0.3,0.61,0.39,0.57,0.44,0.68c0.19,0.22,0.25,0.3,0.29,0.34C89.35,51.22,88.93,48.69,89.04,75.52z M89.06,78.45
	c-0.02-0.02-0.02-0.02-0.04-0.04c-0.19-0.19-0.56-0.52-0.74-0.68v0c-0.33-0.29-0.48-0.44-0.55-0.53c0-0.39,0-0.83,0-1.33
	c0.59,0.75,0.8,0.84,0.87,0.94c0.23,0.21,0.37,0.33,0.45,0.41c0,0.19,0,0.37,0,0.56C89.05,78.02,89.05,78.23,89.06,78.45z
	 M87.19,78.49c-0.42,0-2.68,0.04-6.6,0.05c0.02-0.31,0.02-0.87,0.04-1.92c0.03-1.59,0.02-2.34-0.02-3.78l0-0.01l-0.01,0
	c0-0.05,0-0.09,0-0.14c0-0.14,0-0.25-0.01-0.34c0.74,0,1.64-0.01,2.8-0.01l0.02,0l0.02,0c0.04-0.02,0.06-0.04,0.08-0.08
	c0.04-0.17-1.69-8.7-2.14-14.37c0.04,0.01,0.08,0.02,0.15,0.04c0.04,0,0.05,0.02,0.13,0.02c0.1,0,0.17-0.01,0.22-0.03
	c0.27,1.57,0.5,2.93,0.51,2.94l0.01,0.01l0.01,0.01c0.02,0.01,0.01,0,0.03,0.01c0.2,0.03,1.58-0.19,1.69-0.32l0.01-0.01
	c0.01-0.03,0.01-0.03,0.01-0.06c-0.09-0.77-0.16-1.54-0.3-2.6c0.09,0.01,0.25,0.02,0.54,0.03c1.65,0.09,2.17,0.04,2.65,0.04
	c0,0.18,0,0.36,0,0.54c-0.05,0-0.12-0.01-0.22-0.02c-0.71-0.07-1.15-0.08-1.97-0.08c-0.39,0-0.3-0.03-0.43,0.08
	c0.12,0.11,0.03,0.08,0.42,0.11c0.88,0.06,1.19,0.08,1.96,0.08c0.11,0,0.18,0,0.23,0c0,0.19,0,0.38,0,0.57
	c-0.05-0.01-0.13-0.01-0.32-0.03c-0.54-0.05-0.8-0.03-1.55-0.05c-0.11,0-0.08-0.02-0.19,0.07l0.08,0.09
	c0.11,0.02,0.78,0.12,1.65,0.1c0.2-0.01,0.28-0.01,0.33-0.01c0,0.25,0,0.49,0,0.74l-0.06-0.06C86.29,60,86.04,60,85.62,60
	c-0.17,0-0.12-0.02-0.24,0.08l0.08,0.09c0.47,0.07,1.05,0.15,1.52,0.09l0.07-0.06c0,0.24,0,0.48,0,0.72c-0.06-0.03-0.23-0.04-1-0.13
	c-0.35-0.03-0.44-0.04-1.17-0.08c-0.84-0.04-0.7-0.05-0.82,0.04c0.1,0.12-0.04,0.08,0.8,0.17c1.07,0.11,2.05,0.14,2.17,0.14
	l0.02-0.02c0,0.39,0,0.77,0.01,1.15c-0.3-0.04-0.39-0.05-0.72-0.05c-0.46,0.01-0.36-0.01-0.48,0.09c0.11,0.11,0.03,0.09,0.47,0.14
	c0.33,0.04,0.58,0.02,0.73,0.01c0,0.22,0,0.45,0,0.67c-0.05-0.01-0.13-0.02-0.32-0.04C86.64,63,86.62,62.99,86.38,63
	c-0.4,0.01-0.31-0.01-0.43,0.09c0.11,0.11,0.02,0.08,0.42,0.14c0.17,0.02,0.26,0.02,0.37,0.02c0.19-0.01,0.28-0.01,0.32-0.02
	c0,0.34,0,0.68,0.01,1.01c-0.07,0-0.19,0-0.45-0.02c-2.42-0.15-2.43-0.23-2.24,0.01c0.89,0.16,1.67,0.24,2.59,0.18
	c0.05,0,0.08,0,0.11,0c0,0.36,0,0.72,0.01,1.07l-0.03-0.04c-0.7-0.1-1.03-0.13-1.68-0.13c-1.03,0.01-0.85-0.02-0.97,0.09
	c0.11,0.11,0.05,0.08,0.16,0.09c1.99,0.11,2.05,0.08,2.47,0.11l0.05-0.04c0,0.25,0,0.5,0,0.74c-0.6-0.05-0.87-0.01-1.35,0
	l-0.09,0.08c0.11,0.11,0,0.1,0.68,0.13l0,0c0.23,0,0.33,0.01,0.75-0.01c0,0.44,0.01,0.86,0.01,1.28c-0.03,0-0.04,0-0.08,0
	c-0.43-0.04-0.6-0.04-0.88-0.04c-0.59,0-0.5-0.01-0.61,0.09c0.11,0.11-0.02,0.08,0.7,0.14c0.11,0.04,0.67,0.01,0.78,0.01
	c0.04,0,0.06,0,0.09,0c0,0.33,0,0.66,0.01,0.98c-0.07,0-0.18,0-0.4-0.02c-0.25-0.01-0.53-0.02-0.88-0.03
	c-1.42-0.02-1.16-0.06-1.3,0.06c0.11,0.12-0.03,0.08,0.6,0.14c0.57,0.04,0.95,0.07,1.58,0.04c0.23-0.01,0.34-0.01,0.4-0.01
	c0,0.39,0.01,0.76,0.01,1.13c-0.79-0.08-0.52,0-0.63-0.04c-0.75,0-0.63-0.01-0.74,0.09c0.12,0.12,0.01,0.08,0.52,0.12
	c0.44,0.04,0.47,0.04,0.86,0.05c0,0.32,0,0.63,0.01,0.94c-0.03,0-0.04,0-0.08,0c-0.23-0.01-0.73-0.03-1-0.03
	c-1.52,0.02-1.31,0-1.43,0.1c0.11,0.11-0.09,0.1,1.42,0.14c0.32,0,0.69-0.01,1-0.02c0.04,0,0.05,0,0.08,0
	c0,0.54,0.01,1.06,0.01,1.55c-0.21-0.01-0.65-0.02-1.61-0.03c-2.1,0-2.23-0.08-2.02,0.15c0.42,0.04,0.92,0.07,1.42,0.08
	c1.38,0,1.96,0,2.21-0.01c0,0.23,0,0.45,0,0.67c-0.02,0-0.03,0-0.06,0c-0.82-0.04-0.99-0.05-2.22,0.01c-0.2,0.01-0.14-0.02-0.25,0.1
	c0.13,0.12-0.12,0.07,1.4,0.1c0.34,0,0.74-0.01,1.07-0.02c0.03,0,0.04,0,0.06,0c0,0.23,0,0.46,0.01,0.67
	c-0.44,0.01-1.35,0.03-3.18,0.03c-1.84-0.02-1.51-0.07-1.65,0.05c0.1,0.11-0.11,0.12,1.64,0.18c1.15,0.04,2.54-0.03,3.18-0.07
	c0,0.28,0,0.53,0.01,0.78c-0.04-0.03-0.12-0.02-0.66-0.04c-0.19,0-0.61-0.02-0.86-0.01c-1.67,0.01-1.47,0-1.58,0.1
	c0.11,0.11-0.07,0.11,1.58,0.14c0.15,0,0.49,0,0.86-0.02c0.53-0.02,0.61-0.01,0.66-0.05c0,0.22,0,0.43,0,0.63
	c-0.29-0.01-0.96,0.04-2.37,0.05c-0.59,0.02-1.5,0.03-2.06,0c-0.88-0.04-0.7-0.07-0.83,0.04c0.09,0.11,0.05,0.09,0.16,0.1
	c1.95,0.2,3.36,0.09,5.11-0.03c0,0.3,0,0.56,0.01,0.8c-0.06-0.01-0.17-0.01-0.43-0.02c-0.61-0.03-1.4-0.06-2.08-0.05
	c-2.94,0.01-2.52-0.02-2.64,0.09c0.11,0.11,0.05,0.08,0.16,0.09c2,0.08,2.98,0.06,4.55,0.06c0.26,0,0.37,0.01,0.43,0
	c0,0.13,0,0.25,0,0.36c-0.08-0.06-0.05,0.02-0.91,0.02c-1.9,0.09-1.62,0.03-1.75,0.15c0.11,0.11,0.06,0.08,0.17,0.09
	c0.85,0.04,1.42,0.04,2.16-0.07c0.25-0.04,0.3-0.04,0.33-0.07C87.19,78.3,87.19,78.42,87.19,78.49z M80.32,78.54
	c-3.98,0.01-9.63-0.02-16.82-0.14c0.01-0.28,0.01-0.76,0.02-1.68c0.11-8.16-0.1-7.58,0.09-7.58v0c1.55-0.02,2.24-0.02,2.55-0.04
	c-0.21,2.1-0.32,2.25-0.08,2.54c0.3,0.36,1.53,0.33,1.91,0.34c0.17,0,0.24,0.03,0.32-0.07c0.19-0.28,0.23-1.3,0.34-2.8
	c0.17,0.03,0.21,0.06,0.5,0.06c0.11-0.02,0.16-0.02,0.21-0.02c0.01,0.23,0.02,0.45,0.02,0.64c-0.05-0.04-0.07-0.06-0.25-0.06
	c-0.07,0-0.16,0.02-0.22,0.04c-0.12,0.04-0.08,0.01-0.16,0.13c0.12,0.08,0.07,0.07,0.19,0.07c0.11,0,0.18,0.02,0.32-0.04
	c0.09-0.03,0.09-0.04,0.12-0.09c0.01,0.31,0.02,0.57,0.02,0.79l0,0c0,0-0.07-0.02-0.07-0.02c-0.18-0.05-0.25,0.02-0.36,0.11
	c0.12,0.09,0.09,0.1,0.28,0.12c0.09-0.01,0.12-0.02,0.16-0.06c0.03,1.03,0.02,1.06,0.09,1.13c0.25,0.17,1.97,0.36,2.29,0.08
	c0.08-0.06,0.11-0.16,0.12-0.17c0.23-0.69,0.03-1.92-0.04-2.65c0-0.02,0-0.06,0-0.08c0.13,0.03,0.36,0.04,0.75,0.07
	c0.15,0,0.34,0.03,1.02-0.02c0.01,0,0.08-0.01,0.15-0.01c-0.02,0.1-0.04,0.2-0.05,0.3c-0.5-0.05-1.09-0.02-1.58,0.02l-0.08,0.09
	l0.09,0.08c0.71,0.01,0.85,0.05,1.54-0.02c-0.03,0.16-0.06,0.32-0.08,0.47c-0.62,0-0.89,0.02-1.31,0.06c-0.28,0.02-0.22,0-0.33,0.11
	c0.11,0.1,0.04,0.08,0.34,0.09c0.4,0.01,0.83,0,1.27-0.09c-0.04,0.26-0.09,0.49-0.12,0.71c-0.05-0.06-0.04-0.04-0.18-0.06
	c-0.31-0.04-0.46-0.04-0.98,0.02L72.21,71c0.11,0.1,0.02,0.09,0.64,0.11c0.11,0.01,0.31-0.01,0.42-0.02c0.12-0.01,0.12,0,0.17-0.04
	c-0.06,0.32-0.1,0.6-0.13,0.81l-0.06-0.06c-0.11,0-0.19-0.05-0.39-0.04c-0.43,0.02-0.38,0.03-0.49,0.12
	c0.11,0.09,0.07,0.1,0.49,0.12c0.15,0.01,0.29-0.04,0.39-0.04l0.05-0.05c-0.03,0.23-0.05,0.38-0.03,0.4
	c0.02,0.03,0.03,0.03,0.06,0.04l0.02,0h0.02c4.14-0.01,3.39-0.01,6.97-0.02c0,0.1,0,0.23-0.01,0.41c-1.09,0.01-2.59,0.06-3.54,0.05
	c-0.71-0.01-0.56-0.06-0.69,0.06c0.1,0.11-0.02,0.09,0.69,0.14c1.78,0.09,2.78-0.03,3.55-0.07c0,0.1,0,0.19-0.01,0.3
	c-0.1,0.01-0.24,0.02-0.47,0.03c-1.35,0.06-2.79-0.06-4.32-0.06c-1.43,0.02-2.54,0.05-2.97,0.05c-1.44,0-1.19-0.06-1.33,0.06
	c0.1,0.11,0.05,0.09,0.22,0.1c1.31,0.08,3.27,0.01,4.65,0.04c1.27,0.02,2.72,0.09,4.05-0.03c0.07-0.01,0.11-0.01,0.16-0.01
	c0,0.28-0.01,0.58-0.02,0.91c-0.16,0-0.43,0.01-0.89,0c-3.63-0.03-5.75-0.21-9.56-0.15c-1.47,0.04-1.28,0.01-1.39,0.13
	c0.21,0.2-0.4-0.03,4.39,0.1c0.33,0.01,6.06,0.2,7.46,0.06c0,0.24-0.01,0.49-0.01,0.74c-0.04-0.04-0.05-0.03-0.32-0.04
	c-0.26-0.01-0.92-0.02-1.22-0.02c-1.67,0.02-1.48,0.02-1.59,0.12c0.11,0.1-0.07,0.1,1.59,0.12c0.37,0,0.85-0.02,1.22-0.04
	c0.26-0.02,0.27,0,0.31-0.05c0,0.27-0.01,0.54-0.01,0.8c-0.26,0.02-0.93,0.1-3.23,0.01c-3.12-0.15-6.77-0.15-8.19-0.28l-0.09,0.08
	L68.85,76c1.38,0.19,4.03,0.14,6.1,0.26c2.24,0.1,3.08,0.14,4.92,0.05c0.2-0.01,0.33-0.02,0.42-0.03c0,0.28,0,0.56,0,0.81
	c-0.17-0.01-0.55-0.01-1.45-0.02c-0.66-0.01-1.82,0-2.58-0.08l-0.09,0.07l0.08,0.09c1.2,0.16,2.12,0.17,3.25,0.14
	c0.47-0.01,0.69-0.02,0.8-0.03c0,0.28,0.01,0.54,0.01,0.76c-0.51,0-0.99-0.04-2.17-0.04c-0.74,0-0.61-0.01-0.73,0.09
	c0.11,0.11,0.07,0.08,0.18,0.09c1.18,0.04,1.31,0.11,2.72,0.03C80.31,78.33,80.31,78.44,80.32,78.54z M63.2,74.76
	c0.02,2.18,0.01,3.18,0.03,3.64c-0.43-0.01-0.85-0.01-1.3-0.02c-0.16,0-0.23-14.25-0.36-31.56c0.72,0.06,2.62,0.06,7.64,0.12
	c0,0.04,0,0.06,0,0.1c0,0.19-0.01,0.38-0.06,0.58c-0.08,0.34-0.11,0.23-0.06,0.36l-0.05,0.01c-0.77,0.85-0.27,0.6-1.79,1.97
	c-0.22,0.2-0.24,0.22-0.25,0.27c-0.39,0-0.81,0-1.3,0c-0.41,0-0.75,0.03-1.05,0.21c-0.16,0.1-0.12,0.17-0.12,0.69v0
	c-0.03,0.49-0.16,1.11-0.03,1.66c0.03,0.12,0.05,0.26,0.16,0.29c0.49,0.05-0.63-0.03,1.77-0.03c0,0.01,0,0.01,0,0.02
	c0.04,0.44-0.47,1.5-0.42,3.74c0.03,0.75-0.04,1.7,0.47,1.73c0.02,0,0.03,0,0.05,0c-0.18,1.03-0.08,6.82-0.29,9.61
	c-0.02,0.26-0.04,0.49-0.07,0.7c-0.17-0.01-0.48-0.01-1.09-0.02c-0.25,0-1.66-0.04-1.78-0.01C63.15,68.89,63.17,70.7,63.2,74.76z
	 M89.46,24.37c0,0.42,0,0.81,0,1.21c-0.3-0.42-0.66-0.8-1.04-1.14c-0.04-0.03-0.06-0.05-0.08-0.07
	C88.73,24.38,89.09,24.37,89.46,24.37z M93.32,74.54c0-0.11,0.45-35.2,0.34-35.27l4.76,0c0.02,4.43-0.11,22.58-0.36,35.36
	C97.94,74.63,96.59,74.61,93.32,74.54z M89.61,65.74c0.07-6.71,0.17-13.87,0.26-20.32c0.98,0,1.84,0.11,3.21,0.08
	c-0.12,5.72-0.22,13.97-0.28,20.32C92.38,65.81,91.32,65.62,89.61,65.74z M75.94,88.91c-1.28-1.12-2.35-2.2-3.88-3.45l-0.12,0.01
	l0.01,0.12c1,0.86,2.46,2.33,3.71,3.32c-0.61,0-1.19,0-1.73,0.01c-0.09-0.08-0.22-0.18-0.43-0.35c-1.85-1.63-2.94-2.83-4.84-4.53
	l-0.12,0l0,0.12c1.7,1.59,3.08,3.17,5.11,4.77c-0.5,0-0.97,0.01-1.42,0.01l0-0.1c-0.74-0.74-1.12-0.98-1.73-1.5
	c-0.3-0.26-0.2-0.22-0.36-0.22c0,0.14-0.09,0.08,0.68,0.78c0.49,0.43,0.74,0.61,0.98,0.8c0.19,0.14,0.25,0.2,0.29,0.23
	c-0.56,0-1.1,0.01-1.64,0.01c-0.14-0.13-0.4-0.37-0.89-0.82c-0.44-0.39-0.69-0.66-2.38-2.14c-1.82-1.59-1.52-1.4-1.7-1.39
	c0.01,0.16-0.22-0.08,1.55,1.56c0.77,0.71,1.33,1.21,2.39,2.13c0.37,0.32,0.6,0.52,0.76,0.66c-0.4,0-0.8,0.01-1.2,0.01
	c-0.64-0.45-1.57-1.34-2.34-1.94l-0.12,0.01l0.01,0.12c0.51,0.44,1.26,1.23,2.14,1.82c-0.49,0-0.99,0.01-1.52,0.01
	c-2.06-1.72-3.99-3.29-4.65-3.88c-0.84-0.74-0.66-0.65-0.84-0.65l0,0.12c1.35,1.32,2.66,2.38,4.16,3.57
	c0.52,0.41,0.84,0.67,1.05,0.84c-0.4,0-0.82,0-1.25,0.01c-1.66-1.5-4.08-3.52-4.95-4.24c-0.99-0.83-1.2-1.02-1.29-1.06
	C59.34,71.22,59,35.89,59.18,35.89c-0.02-0.4,1.16-0.2-20.53-0.2c-0.12,0.05-0.37-0.45-0.41,11.61c-0.05,25.16-0.2,34.59-0.25,38.21
	c-0.58-0.66-1.2-1.25-1.5-1.54l-0.12,0l0,0.12c1.01,1.15,1.2,1.3,1.62,1.71c-0.01,0.66-0.01,1.1-0.01,1.39
	c-0.52-0.63-0.52-0.61-1.58-1.69l-0.12-0.01l0,0.12c0.52,0.61,1.13,1.28,1.71,1.87c0.01,0.23,0.03,0.3,0.06,0.35
	c0.05,0.05,0.06,0.08,0.23,0.1c0.21,0.24,0.56,0.61,0.67,0.66c0.18,0.15,0.27,0.23,0.34,0.28c-0.63-0.01-1.27-0.02-1.89-0.02
	c-0.06-0.05-0.15-0.13-0.3-0.26c-1.28-1.19-2.46-2.76-3.85-4.01l-0.12,0l0,0.12c1.12,1.07,2.45,2.86,3.84,4.03
	c0.06,0.05,0.09,0.08,0.14,0.12c-0.6-0.01-1.2-0.02-1.8-0.02c-0.09-0.08-0.24-0.22-0.5-0.48c-1.11-1.11-3.43-3.83-3.78-3.82l0,0.12
	c1.57,1.57,2.2,2.54,3.92,4.1c0.04,0.03,0.05,0.05,0.08,0.07c-0.64-0.01-1.27-0.02-1.89-0.03c-0.04-0.04-0.08-0.09-0.14-0.16
	c-0.45-0.49-0.56-0.55-0.59-0.59c-0.65-0.57-0.4-0.49-0.64-0.52l-0.01,0.12c0.38,0.5,0.41,0.46,0.49,0.57
	c0.34,0.34,0.2,0.19,0.4,0.38l0,0c0.08,0.08,0.15,0.14,0.21,0.19c-0.41-0.01-0.82-0.01-1.23-0.02c-0.04-0.04-0.09-0.09-0.16-0.16
	c-1.67-1.69-4-3.84-5.08-4.94l-0.12,0l0,0.12c1.69,1.84,3.97,3.88,5.08,4.95c0.02,0.02,0.02,0.02,0.04,0.04
	c-0.52-0.01-1.05-0.02-1.56-0.02c-0.04-0.04-0.11-0.1-0.26-0.24c-0.11-0.1-0.42-0.38-0.75-0.65c-0.74-0.65-0.57-0.56-0.75-0.56v0.12
	c0.47,0.5,0.77,0.82,1.36,1.26c0.04,0.03,0.06,0.05,0.09,0.07c-0.49-0.01-0.98-0.02-1.46-0.02c-0.84-0.75-3.81-3.4-4.25-3.78
	c-0.66-0.58-0.52-0.48-0.68-0.48c0.01,0.18-0.24-0.12,1.85,1.83c0.2,0.16,0.62,0.64,2.53,2.23c0.1,0.08,0.18,0.15,0.25,0.2
	c-0.47-0.01-0.92-0.02-1.38-0.02c-0.75-0.61-2.14-1.99-2.92-2.61l-0.12,0.01l0.01,0.12c0.86,0.77,1.67,1.68,2.74,2.48
	c-0.44-0.01-0.88-0.01-1.31-0.02c-0.03-0.02-0.08-0.05-0.14-0.1c-1.48-1.1-2.79-2.89-4.5-4.1l-0.12,0.02l0.02,0.12
	c1.36,1.01,2.82,2.92,4.33,3.99c0.04,0.03,0.06,0.04,0.1,0.07c-0.45-0.01-0.89-0.02-1.33-0.02c0-0.04-0.02-0.05-0.1-0.14
	c-0.62-0.66-1.01-0.96-1.72-1.49l-0.12,0.01l0.01,0.12c1.09,0.97,1.51,1.35,1.7,1.5c-0.43-0.01-0.86-0.01-1.28-0.02
	c-0.48-0.51-0.98-0.92-1.67-1.5c-1.05-0.92-1.91-1.91-3.31-2.84l-0.12,0.02l0.02,0.12c0.76,0.52,1.42,1.16,2.09,1.81
	c1.58,1.53,1.39,1.2,2.47,2.14c0.12,0.11,0.2,0.18,0.27,0.25c-0.45-0.01-0.9-0.02-1.33-0.02c-0.03-0.03-0.09-0.07-0.29-0.22
	c-0.04-0.04-1.2-1.02-1.79-1.49l-0.12,0.01L17.88,87c0.66,0.61,1.11,1.08,1.79,1.52c0.04,0.03,0.06,0.04,0.09,0.06
	c-0.45-0.01-0.9-0.02-1.34-0.02c-0.11-0.11-0.37-0.32-0.95-0.81c-1.07-0.9-1.54-1.28-2.26-1.85c-2.55-2.03-2.3-1.79-2.43-1.78
	c0.02,0.16-0.27-0.1,2.28,1.96c0.72,0.59,1.64,1.33,2.27,1.83c0.41,0.32,0.64,0.52,0.8,0.64c-0.52-0.01-1.02-0.02-1.51-0.03
	c-0.03-0.04-0.1-0.1-0.24-0.23c-0.36-0.35-0.78-0.67-1.12-0.92c-0.56-0.42-0.45-0.36-0.61-0.35l0.01,0.12
	c0.4,0.35,0.72,0.63,1.37,1.14c0.13,0.11,0.22,0.18,0.3,0.24c-0.43-0.01-0.85-0.02-1.26-0.02c-0.02-0.02-0.07-0.03-0.24-0.13
	c-0.96-0.54-0.89-0.8-4.45-3.7c-1.67-1.36-2.05-1.7-2.18-1.78c0-0.04,0-0.07,0-0.1c0-0.31,0-0.64,0-0.96
	c0.57,0.53,1.24,0.98,1.66,1.31c0.28,0.21,0.18,0.18,0.34,0.17c-0.01-0.15,0.03-0.08-0.22-0.32c-1.04-0.9-1.27-0.99-1.78-1.39
	c0-0.37,0-0.75,0-1.13c0.47,0.42,0.69,0.57,1.34,1.06c0.77,0.56,0.6,0.49,0.77,0.47c-0.01-0.14,0.11-0.04-0.85-0.82l0,0
	c-0.79-0.61-0.7-0.53-1.23-0.92c-0.02-0.01-0.02-0.02-0.04-0.03c0-0.37,0-0.75,0-1.13c0.77,0.56,1.56,1.27,2.48,2
	c0.41,0.34,0.34,0.28,0.47,0.27l-0.01-0.12c-1.07-0.92-1.86-1.71-2.94-2.37c0-0.42,0-0.85,0-1.28c0.68,0.63,1.17,1.16,2.39,1.98
	c0.29-0.04,0.21-0.02-1.37-1.35c-0.77-0.65-0.94-0.8-1.02-0.83C8.27,63.7,8.29,45.51,8.15,31.38c0.08,0.06,0.16,0.13,0.3,0.23
	c0.13,0.1,0.09,0.08,0.24,0.08c-0.01-0.15,0.05-0.07-0.31-0.43l0,0c-0.06-0.05-0.16-0.14-0.22-0.2c0-0.27,0-0.55-0.01-0.81
	C8.51,30.65,8.9,31,8.98,31.04c0.25,0.2,0.41,0.34,0.53,0.44c0,0.26,0,0.53,0,0.81c-0.03-0.03-0.06-0.06-0.09-0.08
	c-0.13-0.12-0.1-0.1-0.23-0.1l-0.01,0.12c0.1,0.13,0.06,0.11,0.25,0.35c0.03,0.03,0.04,0.05,0.07,0.08
	c0.05,14.51,0.31,45.5,0.4,45.62c0.05,0.05,0.78,0.09,1.94,0.13v0.03c0.44,0.47,0.94,0.93,1.43,1.34c1.33,1.13,1.08,1,1.27,1
	c0-0.14,0.07-0.07-0.47-0.59c-1.01-0.96-1.35-1.17-2.02-1.78c6.21,0.17,23.8,0.15,24.15,0.04c0.06-0.03,0.04-0.01,0.09-0.05
	c0.19-0.2-0.36-40.13-0.27-50.7c0.05,0.06,0.1,0.12,0.19,0.2c0.24,0.23,0.18,0.18,0.32,0.19c0-0.14,0.04-0.08-0.18-0.38v0
	c-0.08-0.09-0.17-0.19-0.32-0.32c0-0.41,0.01-0.76,0.02-1.07c0.45,0.54,1.09,1,1.46,1.32h0c0.13,0.11,0.32,0.27,0.44,0.4l0.12,0
	l0-0.12c-0.14-0.16-0.26-0.28-0.43-0.44l0,0c-0.56-0.52-0.98-0.81-1.46-1.28c-0.07-0.07-0.1-0.11-0.14-0.15
	c0.01-0.23,0.01-0.42,0.02-0.56c-0.11,0-0.46-0.02,0.01,0c-0.01-0.26-0.11-0.27-1.25-0.26c-0.06-0.06-0.12-0.12-0.22-0.21l0,0
	c-0.3-0.28-0.13-0.12-0.32-0.29c-0.05-0.04-0.09-0.08-0.14-0.12c0.52,0,1.05,0,1.58,0c0.89,0.85,2.39,2.4,3.58,3.37l0.12-0.01
	l-0.01-0.12C38.45,27,37.19,25.67,36,24.61c0.49,0,0.98,0,1.48,0c0.3,0.29,0.7,0.64,0.84,0.77c0.52,0.46,0.4,0.39,0.56,0.4
	c0-0.15,0.04-0.08-0.22-0.36c-0.33-0.36-0.62-0.61-0.85-0.8c0.5,0,1.01,0,1.52,0c0.72,0.77,1.66,1.56,2.3,2.14
	c0.73,0.66,0.53,0.57,0.72,0.57c0-0.31-1.72-1.75-2.75-2.72c0.46,0,0.93,0,1.4,0c0.24,0.25,0.57,0.57,0.72,0.68
	c0.71,0.6,0.62,0.53,0.76,0.52c-0.02-0.18,0.08-0.02-0.6-0.69c-0.05-0.04-0.14-0.14-0.46-0.42v0c-0.04-0.03-0.07-0.06-0.1-0.09
	c0.47,0,0.95,0,1.42,0c0.84,0.9,1.88,1.8,2.71,2.59c0.36,0.35,0.26,0.29,0.42,0.29c0-0.14,0.14-0.02-1.03-1.17
	c-0.65-0.63-1.22-1.13-1.48-1.38c-0.16-0.14-0.27-0.25-0.36-0.34c0.46,0,0.92,0,1.39,0c0.39,0.39,0.78,0.74,1.08,0.99
	c0.43,0.37,0.34,0.31,0.49,0.3c-0.01-0.17,0.05-0.06-0.35-0.46c-0.46-0.44-0.72-0.67-0.91-0.84c0.46,0,0.92,0,1.39,0
	c0.48,0.49,2.44,2.49,3.14,3.12l0.12,0c0-0.16,0.05-0.06-0.34-0.46c-0.4-0.4-1.49-1.6-2.03-2.09c-0.23-0.21-0.43-0.38-0.63-0.56
	c0.44,0,0.87,0,1.31,0c0.42,0.54,1.12,1.1,1.32,1.28c0.13,0.11,0.08,0.09,0.22,0.08c-0.01-0.14,0.02-0.1-0.1-0.21
	c-0.64-0.65-0.87-0.85-1.18-1.15c0.42,0,0.84,0,1.27,0c0.59,0.64,1.4,1.34,1.83,1.79c0.54,0.56,0.87,0.99,1.48,1.45l0.12-0.02
	c-0.02-0.15,0.02-0.09-0.17-0.25c-0.11-0.1-0.29-0.26-0.51-0.52h0c-1.19-1.37-1.07-1.15-2.35-2.32c-0.06-0.06-0.1-0.09-0.14-0.13
	c0.46,0,0.92,0,1.37,0c0.39,0.42,0.96,0.98,1.53,1.47c0.52,0.45,0.41,0.38,0.56,0.38c-0.01-0.16,0.07-0.05-0.42-0.53
	c-0.5-0.51-1.02-0.99-1.37-1.32c0.46,0,0.93,0,1.39,0l0.01,0.06c0,0,1.04,1.06,1.63,1.54c0.11,0.09,0.06,0.07,0.21,0.06
	c-0.02-0.17,0.05-0.04-0.3-0.4c-0.25-0.25-0.54-0.57-0.8-0.81l0,0c-0.1-0.09-0.31-0.27-0.55-0.45c0.43,0,0.86,0,1.29,0
	c0.07,0.07,0.24,0.21,0.64,0.57c2.05,1.87,1.52,1.65,1.8,1.7l0.02-0.12c-0.61-0.86-1.32-1.5-2.16-2.14
	c-0.01-0.01-0.01-0.01-0.02-0.02c0.42,0,0.85,0,1.27,0l0,0.03c0.12,0.1,0.55,0.53,0.83,0.78c0.87,0.79,0.71,0.68,0.86,0.68
	c0-0.15,0.03-0.09-0.16-0.3c-0.35-0.37-0.74-0.78-1.31-1.2c0.43,0,0.86,0,1.29,0c0.21,0.19,2.36,2.16,2.46,2.31
	c1.37,1.33,1.26,1.45,1.47,1.48c-0.07,11.06,0.29,50.35,0.32,50.45c0.03,0.06,0.01,0.04,0.05,0.09c0.24,0.24,26.03,0.38,26.39,0.13
	c0.01-0.01,0.02-0.2,0.03-0.53c0.52,0.57,0.64,0.61,0.71,0.71c0.58,0.5,0.5,0.43,0.64,0.43c-0.01-0.16,0.03-0.1-0.47-0.6l0,0
	c-0.24-0.23-0.12-0.13-0.86-0.8c0-0.2,0.01-0.45,0.01-0.73c0.03,0.04,0.05,0.06,0.1,0.11h0c0.48,0.53,0.94,0.87,1.05,0.98
	c0.09,0.07,0.13,0.11,0.19,0.15c0,0.67,0.01,1.3,0.02,1.89c-0.15-0.17-0.28-0.3-0.55-0.54c-0.61-0.52-0.53-0.46-0.68-0.45
	c0.02,0.21-0.09-0.01,0.91,1c0.15,0.13,0.25,0.22,0.32,0.29c0,0.45,0.01,0.86,0.01,1.26c-0.34-0.39-0.96-1.08-1.09-1.16
	c-0.91-0.91-0.72-0.78-0.89-0.8l-0.01,0.12c0.72,0.89,1.3,1.41,1.75,1.86c0.14,0.14,0.2,0.2,0.24,0.24c0,0.38,0.01,0.74,0.01,1.09
	c-0.34-0.43-0.74-0.83-0.91-1.01c-0.24-0.25-0.16-0.21-0.32-0.22c-0.02,0.21-0.09-0.01,0.77,1.07c0.02,0.02,0.32,0.36,0.45,0.52
	c0.01,0.47,0.01,0.9,0.02,1.29c-0.7-0.87-1.35-1.46-1.99-2.21c-0.34-0.4-0.23-0.33-0.4-0.36l-0.02,0.12
	c0.73,1.06,1.73,1.96,2.41,2.73c0.01,0.34,0.01,0.64,0.02,0.92c-0.61-0.72-1.24-1.32-1.85-1.88h-0.12l0,0.12
	c0.29,0.3,1.36,1.42,1.42,1.48c0.28,0.29,0.45,0.46,0.56,0.57c0.01,0.33,0.02,0.61,0.03,0.86c-0.27-0.31-0.58-0.56-0.88-0.88
	l-0.12-0.01l-0.01,0.12c0.37,0.49,0.67,0.73,1.02,1.14c0.03,0.57,0.06,0.89,0.1,1.07c-0.02,0-0.04,0-0.06,0
	c-0.11-0.12-0.39-0.39-1.16-1.13c-1.6-1.51-1.24-1.33-1.47-1.36l-0.01,0.12c0.77,0.95,1.42,1.53,2.38,2.36
	c-0.38,0-0.78-0.01-1.2-0.01c-0.1-0.12-0.46-0.38-1.86-1.99c-0.65-0.74-1.56-1.75-2.34-2.41l-0.12,0.01l0.01,0.12
	c1.24,1.12,2.14,2.45,3.77,4c0.13,0.12,0.22,0.2,0.29,0.26c-0.42,0-0.86-0.01-1.33-0.01c-0.09-0.08-0.21-0.2-0.39-0.36
	c-1.61-1.52-1.2-1.3-1.43-1.32l-0.01,0.12c0.46,0.59,0.91,1.06,1.52,1.56c-0.37,0-0.75-0.01-1.14-0.01c-0.1-0.09-0.23-0.2-0.41-0.36
	c-1.19-1.07-2.44-2.43-4.36-4.16l-0.12,0.01l0.01,0.12c1.77,1.65,2.82,2.92,4.61,4.39c-0.51,0-1,0-1.47,0
	c-0.08-0.09-0.21-0.23-0.43-0.47c-1.01-1.12-1.65-1.68-2.53-2.4c-0.11-0.08-0.05-0.06-0.2-0.05l0.01,0.12
	c0.75,0.62,1.56,1.46,2.57,2.47c0.14,0.14,0.25,0.25,0.33,0.33c-0.51,0-1,0-1.47,0c-0.17-0.17-0.41-0.4-0.78-0.78
	c-1.34-1.37-2.61-2.62-4.05-3.89l-0.12,0.01l0.01,0.12c2.02,1.9,3.77,3.72,4.67,4.54c-0.57,0-1.12,0-1.64,0l0-0.03
	c-1.36-1.36-1.34-1.27-1.43-1.38c-1-0.9-0.88-0.78-1.02-0.78l0.01,0.12c0.87,0.83,1.28,1.3,2.21,2.07
	C77.94,88.9,76.89,88.9,75.94,88.91z M38.59,87.33c0.51-37.83-0.04-38.92,0.4-51.06c0-0.11-1.48-0.02,19.72-0.15
	c-0.24,8.02,0.26,51.08,0.14,51.08l0,0.24C56.3,87.57,39.29,87.41,38.59,87.33z M58.48,88.58c-0.3-0.27-0.42-0.36-0.65-0.52
	c0.88-0.02,1.45-0.05,1.51-0.1v0c0.34,0.3,0.8,0.71,0.91,0.75c0.18,0.13,0.31,0.22,0.41,0.29c-0.6,0-1.2,0-1.81,0
	C58.85,88.91,58.85,88.92,58.48,88.58z M62.75,88.98c-0.68-0.55-3.32-2.78-3.33-2.79l-0.05,0c0-0.23,0-0.48,0-0.75
	c1.3,1.05,2.75,2.43,4.34,3.53C63.41,88.98,63.09,88.98,62.75,88.98z M64.01,88.98c-0.1-0.07-0.29-0.21-0.73-0.55
	c-1.24-0.98-2.29-2.01-3.91-3.22c0-0.4,0-0.85,0-1.33c0.14,0.13,0.45,0.39,1.16,1.01c0.11,0.1,1.63,1.41,2.29,1.96
	c1.51,1.27,2.2,1.85,2.53,2.12C64.92,88.97,64.48,88.98,64.01,88.98z M62.46,88.98c-0.48,0-0.98,0-1.47,0.01
	c-0.08-0.08-0.28-0.24-0.76-0.6c-0.1-0.08-0.32-0.24-0.33-0.25c-0.33-0.24-0.47-0.35-0.55-0.4c0.01-0.25,0.01-0.72,0.01-1.37
	C60.64,87.56,61.47,88.25,62.46,88.98z M51.15,88.09c0.44,0.42,0.71,0.63,0.92,0.8c0.05,0.04,0.08,0.07,0.12,0.09
	c-0.45,0-0.91,0-1.37-0.01c0-0.07-0.02-0.08-0.24-0.3c-0.36-0.35-0.49-0.46-0.7-0.59C50.3,88.09,50.72,88.09,51.15,88.09z
	 M50.61,88.98c-0.43,0-0.87,0-1.3-0.01c0.02,0,0.03,0,0.07-0.01c-0.01-0.15,0.05-0.07-0.27-0.36c-0.19-0.18-0.38-0.34-0.61-0.52
	c0.34,0,0.68,0,1.03,0.01c0.23,0.19,0.71,0.59,0.91,0.75C50.52,88.9,50.57,88.95,50.61,88.98z M49.29,88.97
	c-0.59,0-1.18-0.01-1.78-0.01c0-0.05-0.03-0.06-0.21-0.24c-0.23-0.23-0.4-0.37-0.53-0.48l0,0c-0.09-0.08-0.14-0.12-0.2-0.17
	c0.5,0,1.02,0.01,1.55,0.01c0.2,0.17,0.44,0.37,0.71,0.58C49.19,88.93,49.23,88.97,49.29,88.97z M47.28,88.96
	c-1.03-0.01-2.06-0.02-3.1-0.03c-0.01-0.09,0-0.05-0.23-0.26c-0.23-0.21-0.42-0.42-0.71-0.64c0.32,0,0.67,0.01,1.05,0.01
	c0.17,0.13,0.45,0.34,0.94,0.7c0.2,0.15,0.14,0.12,0.29,0.11c-0.02-0.14,0.07-0.06-0.44-0.5c-0.15-0.13-0.28-0.22-0.4-0.3
	c0.51,0,1.05,0.01,1.62,0.02c0.05,0.06,0.14,0.17,0.32,0.35C46.88,88.65,47.04,88.77,47.28,88.96z M43.97,88.93
	c-1-0.01-2-0.02-3-0.03c-0.07-0.07-0.2-0.19-0.48-0.45c-0.05-0.08-0.35-0.3-0.57-0.47c0.35,0.01,0.76,0.01,1.26,0.02
	c0.01,0,0.03,0,0.04,0c0.17,0.15,0.41,0.35,0.76,0.63c0.34,0.26,0.21,0.22,0.39,0.22c0-0.13,0.05-0.08-0.25-0.37
	c-0.22-0.21-0.39-0.35-0.53-0.47c0.31,0,0.76,0.01,1.31,0.02c0.25,0.21,0.52,0.47,0.78,0.68C43.82,88.83,43.91,88.89,43.97,88.93z
	 M40.68,88.89c-0.39,0-0.78-0.01-1.17-0.01c0-0.04-0.02-0.06-0.12-0.16c-0.41-0.41-0.36-0.37-0.84-0.77
	c0.22,0.01,0.54,0.02,1.03,0.02c0.29,0.26,0.69,0.61,0.76,0.65C40.49,88.74,40.6,88.83,40.68,88.89z M52.44,88.99
	c-0.01-0.03-0.06-0.07-0.24-0.25c-0.29-0.29-0.52-0.48-0.73-0.65c0.52,0,1.03,0,1.53,0c0.07,0.07,0.13,0.13,0.29,0.27l0,0
	c0.21,0.17,0.07,0.07,0.44,0.34c0.4,0.29,0.28,0.25,0.45,0.25c-0.01-0.14,0.03-0.09-0.19-0.3c-0.22-0.22-0.48-0.4-0.68-0.55
	c1.19,0,2.31,0,3.25-0.01c0.11,0.09,0.24,0.18,0.27,0.22c1.05,0.77,0.85,0.7,1.04,0.68c-0.02-0.15,0.05-0.07-0.39-0.45
	c-0.22-0.2-0.39-0.33-0.57-0.45c0.22,0,0.43-0.01,0.62-0.01c0.16,0.15,0.61,0.58,0.71,0.63c0.23,0.18,0.33,0.26,0.4,0.3
	c-0.86,0-1.73,0-2.6,0c-0.06-0.06-0.15-0.15-0.32-0.32c-0.11-0.06-0.03-0.08-0.54-0.42c-0.29-0.19-0.22-0.16-0.36-0.14l0.02,0.12
	l0.01,0c0.79,0.68,0.72,0.61,0.72,0.62c0.08,0.06,0.12,0.09,0.17,0.14C54.66,88.99,53.55,88.99,52.44,88.99z M8.1,88.36
	c0.09-0.09,0.12-0.38,0.12-1.24c0.14,0.12,0.28,0.24,0.33,0.29c0.59,0.52,0.93,0.81,1.12,0.98C9.12,88.38,8.6,88.37,8.1,88.36z
	 M8.06,24.54c0.23,0,0.46,0.01,0.7,0.01c0.48,0.42,0.5,0.44,0.84,0.7c-0.06,0.01-0.04,0.03-0.07,0.06
	c-0.01,0.02-0.02,0.31-0.03,0.82c-0.13-0.13-0.28-0.26-0.42-0.38l0,0c-0.32-0.27-0.7-0.53-1.01-0.81
	C8.07,24.77,8.07,24.64,8.06,24.54z" />
	<path class="st0" d="M39.52,10.12c-0.06-0.16-0.06-0.14-0.11-0.25L39.4,9.86c-0.05-0.12-0.22-0.35-0.46-0.54
	c-0.98-0.85-3.63-0.2-4.31-0.93l-0.01,0c-0.1-0.11-0.08-0.03-0.28-0.33c-0.05-0.11-0.09-0.17-0.11-0.28l0-0.01
	c0-0.02,0-0.03-0.01-0.04V7.72c0,0,0-0.01,0-0.02V7.69l0-0.01V7.68l0,0c0,0,0-0.01,0-0.01l0-0.01c0,0,0-0.01,0-0.01l0-0.01
	c0-0.02,0-0.04,0-0.06l0-0.01c0,0,0-0.01,0-0.01l0-0.01V7.55l0-0.01v0l0-0.01V7.52c0,0,0-0.01,0-0.01V7.51c0,0,0-0.02,0-0.02V7.48
	l0-0.01V7.46l0,0c0-0.01,0-0.02,0.01-0.03l0,0c0-0.01,0-0.02,0.01-0.02c0.01-0.02,0-0.01,0.01-0.02l0-0.01c0.01-0.01,0,0,0.01-0.02
	l0-0.01c0.42-0.9,1.88-1.17,2.87-1.13c0.36,0.01,0.79,0.09,1.14,0.2v0c0.19-0.02,0.13,0.01,0.26-0.13c0-0.18-0.01-0.16-0.13-0.26
	c-3.01-0.98-5.47,0.73-4.57,2.29c1.03,1.96,4.08,0.35,5.06,1.84c0.01,0.01,0.03,0.05,0.03,0.07c0.03,0.06,0.02,0.06,0.04,0.1
	c0.05,0.19,0.05,0.19,0.05,0.28c0,0,0,0.01,0,0.01c0,0.01,0,0.01,0,0.02v0c0,0.01,0,0,0,0.02v0c0,0.01,0,0.01,0,0.02v-0.01
	c0,0.01,0,0.01,0,0.02l0,0c0,0.01,0,0.01,0,0.02v0c0,0.01,0,0.01,0,0.02v0c0,0.01,0,0.01,0,0.02l0,0c0,0.01,0,0.01,0,0.02l0,0
	c0,0.01,0,0.01,0,0.02l0,0c0,0.01,0,0.01,0,0.02l0,0c0,0.01,0,0.01,0,0.01c0,0,0,0,0,0l0,0c0,0,0,0,0,0
	c-0.02,0.09-0.05,0.11-0.09,0.18c-0.9,1.16-4.25,1.17-5.36,0.53c-0.19-0.02-0.13-0.04-0.28,0.08c0,0.19-0.08,0.09,0.08,0.28
	c0.11,0,0.27,0.31,1.77,0.51C37.12,12.53,40.07,12.03,39.52,10.12L39.52,10.12L39.52,10.12z" />
	<path class="st0" d="M47.83,6.05L47.83,6.05c-0.27,0.15-0.15-0.11-0.13,2.83c-0.92-0.22-3.6-0.01-4.41,0.05
	c0.01-0.92-0.02-1.14-0.02-2.68c-0.07-0.18-0.02-0.13-0.19-0.21h0c-0.18,0.07-0.13,0.02-0.21,0.19c0,0.46-0.26,1.21-0.13,4.65
	c0.03,0.97-0.01,1.38,0.26,1.38c0.24-0.1,0.2-0.07,0.23-0.76c0.04-0.98,0.06-1.64,0.07-2.13C44.67,9.5,47.1,9.27,47.7,9.3
	c0,0.2,0,0.41,0,0.64l0,0c0.01,2.16-0.1,2.4,0.17,2.41c0.22-0.08,0.24,0.11,0.39-2.03c0.12-2.08-0.07-2.96-0.21-4.08
	C47.96,6.07,48.02,6.11,47.83,6.05z" />
	<path class="st0" d="M55.63,6.66L55.63,6.66c-0.54-0.52-1.2-0.77-1.89-0.77c-0.81,0-1.3,0.29-1.77,0.67
	c-0.02,0.02-0.04,0.03-0.06,0.05c0,0,0,0-0.06,0.06c-1.05,0.94-1.39,3.63,0,4.95c2.6,2.53,6.59-1.2,4.11-4.58
	C55.87,6.92,55.78,6.81,55.63,6.66z M54.8,11.57L54.8,11.57c-0.5,0.31-1.33,0.36-1.93,0.06l0,0c-1.18-0.57-1.47-1.61-1.41-2.92
	c0.07-0.74,0.29-1.44,0.87-1.91l0,0c0.18-0.14,0.34-0.22,0.53-0.3C55.75,5.54,57.52,9.89,54.8,11.57z" />
	<path class="st0"
		d="M46.67,6.61c-0.02-0.02-0.04-0.03-0.07-0.05c-0.01-0.01-0.02-0.02-0.03-0.02C46.6,6.55,46.62,6.57,46.67,6.61z" />
	<polygon class="st0" points="33.85,7.98 33.85,7.98 33.84,7.97 " />
	<polygon class="st0" points="33.86,7.85 33.86,7.85 33.86,7.85 " />
	<path class="st0" d="M65.32,7.92l0-0.01l0-0.02l0-0.02c0-0.02,0-0.01-0.01-0.03l0-0.01c0-0.02-0.01-0.07-0.01-0.08l0-0.02
	l-0.01-0.02c-0.01-0.05,0-0.02-0.01-0.08l-0.01-0.01l0-0.01L65.26,7.6l0-0.01l-0.01-0.02l0-0.01l-0.01-0.02l0-0.01
	c-0.01-0.02-0.01-0.03-0.02-0.04l0-0.01c-0.02-0.05-0.06-0.12-0.07-0.13l-0.01-0.01c-0.02-0.03,0-0.01-0.02-0.04l-0.01-0.01
	L65.1,7.26l-0.01-0.01c-0.01-0.02,0-0.01-0.01-0.03c-0.01-0.01-0.01-0.02-0.02-0.03l-0.01-0.01c-0.01-0.02-0.01-0.01-0.02-0.03
	l-0.01-0.01C65,7.12,65,7.13,64.99,7.11v0l-0.01-0.01l-0.01-0.01l-0.02-0.01l-0.01-0.01c-0.07-0.09-0.21-0.2-0.26-0.24
	c-1.89-1.48-5.1-0.68-5.21-0.68l-0.06,0.04c-0.01,0-0.02-0.01-0.03-0.01c-0.17,0.08-0.13,0.04-0.19,0.22c0,0.06-0.02,0.74,0,5.75
	c0.07,0.18,0.02,0.13,0.2,0.23c0.18-0.07,0.13-0.02,0.22-0.2c0.15-1.54,0.23-3,0.11-4.44c-0.01-0.25-0.07-0.88-0.1-1.18
	c0.31-0.05,1.65-0.2,2.64-0.02c0.5,0.05,1.03,0.25,1.14,0.28v0c0.26,0.09,0.54,0.25,0.65,0.31c0.46,0.32,0.43,0.36,0.47,0.4v0
	c0.01,0.01,0.02,0.03,0.03,0.04l0,0.01c0.02,0.02,0.02,0.02,0.02,0.03l0,0.01l0.01,0.01l0,0.01L64.6,7.6l0,0.01l0.01,0.01l0,0.01
	l0.01,0.01c0,0.01,0,0,0.01,0.02l0.01,0.01c0,0,0.01,0.03,0.02,0.04l0.01,0.01c0.01,0.02,0.01,0.02,0.02,0.05v0.01
	c0,0.01,0.01,0.02,0.01,0.03l0,0.01c0,0.01,0,0.01,0.01,0.02v0.01l0,0.01v0l0,0.01v0l0,0.01v0.01v0l0,0.01l0,0.01v0l0,0.01l0,0.01v0
	V7.9l0,0.01v0c0,0.01,0,0.01,0,0.02v0l0,0.01v0.01v0c0,0,0,0.01,0,0.01v0v0v0l0,0.01c0,0,0,0,0,0v0l0,0c0,0,0,0.01,0,0.01
	c0,0,0,0.01,0,0.01v0c0,0.01,0,0.01,0,0.02v0c0,0.01,0,0.01,0,0.02v0c0,0.01,0,0.01,0,0.02v0c0,0,0,0.01,0,0.01l0,0l0,0l0,0.01
	l0,0.01v0c0,0.01,0,0.01,0,0.02v0l0,0.01l0,0.01l0,0l0,0.01V8.1v0l0,0.01l0,0.01v0l0,0.01l0,0.01V8.12l0,0.01l0,0.01l0,0l0,0l0,0
	l0,0.01v0l0,0.01v0l0,0.01v0c0,0.01-0.01,0.01-0.01,0.02l0,0c-0.01,0.01,0,0.01-0.01,0.02v0c-0.01,0.02,0,0-0.01,0.02v0.01
	l-0.01,0.01v0.01l-0.01,0.01v0.01l-0.01,0.01c-0.01,0.01-0.01,0.01-0.02,0.03L64.59,8.3c0,0-0.01,0.01-0.01,0.01l-0.01,0.01l0,0.01
	l-0.01,0.01c-0.01,0.01,0,0-0.01,0.02c-0.01,0.01-0.01,0-0.02,0.01l0,0.01C64.5,8.39,64.5,8.39,64.49,8.4l0,0.01
	c-0.04,0.03-0.07,0.06-0.14,0.1l-0.01,0.01l-0.01,0.01l-0.01,0.01L64.3,8.53v0c-0.02,0.01-0.01,0.01-0.03,0.01l-0.01,0.01
	c-0.61,0.34-2.04,0.62-4.07,0.32C60,8.93,60.06,8.88,59.96,9.05c0.05,0.18,0.01,0.13,0.18,0.24c-0.11,0,2.36,0.45,3.87-0.01
	c0.33-0.1,0.48-0.19,0.59-0.24c0.11-0.08,0.32-0.2,0.4-0.31l0.01-0.01l0.01-0.01l0.01-0.01c0.02-0.03,0.02-0.03,0.03-0.04l0.01-0.01
	c0.02-0.03,0.01-0.01,0.06-0.08l0-0.01c0.02-0.03,0.01-0.01,0.03-0.04l0-0.01l0.01-0.01l0-0.02l0.01-0.01l0-0.01l0.01-0.01
	c0.01-0.03,0.01-0.03,0.02-0.04l0.01-0.01c0.01-0.02,0.03-0.08,0.03-0.09c0-0.04,0.02-0.06,0.03-0.12l0.01-0.02
	c0-0.01,0-0.02,0-0.03l0-0.02c0-0.03,0-0.06,0.01-0.09l0-0.02c0-0.02,0-0.03,0-0.05L65.32,7.92z" />
	<polygon class="st0" points="33.88,8.13 33.88,8.14 33.88,8.14 " />
	<path class="st0" d="M39.88,64.99c-0.17,22.07-0.35,20.94-0.07,21.15c0.24,0.12,7.9,0.17,8.21,0.18c8.01,0.1,10.29-0.12,10.01-0.12
	c0.11-0.11-0.28-44.34-0.15-48.94c-0.45-0.02-0.11,0,0,0v0c0,0,0,0,0.01,0c-0.01-0.39,0.97-0.21-16.68-0.21
	c-0.92-0.01-0.92-0.03-1.05,0.08C39.81,37.13,39.94,57.12,39.88,64.99z M40.29,85.57c0.09-7.74,0.22-20.1,0.21-27.68
	c-0.02-5.75-0.12-15,0.12-20.33c17.53,0,16.8-0.17,16.8-0.04c-0.04,1.99-0.05,7.53-0.03,14.19c-0.2-0.23-0.82-0.86-2.72-2.77
	c-2.88-2.78-7.13-7.11-12.1-10.61l-0.12,0.02l0.02,0.12c6.66,4.86,14.13,12.82,14.91,13.39c0.03,12.85,0.12,29.8,0.15,33.61l0,0
	l0,0.2C53.49,85.75,46.34,85.74,40.29,85.57z" />
	<polygon class="st0" points="78.81,46.04 78.81,46.05 78.81,46.05 " />
	<polygon class="st0" points="78.84,46.07 78.84,46.07 78.84,46.07 " />
	<polygon class="st0" points="74.3,46.05 74.3,46.05 74.3,46.05 " />
	<polygon class="st0" points="74.3,46.05 74.3,46.05 74.3,46.05 " />
	<path class="st0" d="M74.3,46.05L74.3,46.05L74.3,46.05z" />
	<polygon class="st0" points="74.3,46.05 74.3,46.05 74.3,46.05 " />
	<polygon class="st0" points="74.3,46.05 74.3,46.05 74.3,46.05 " />
	<polygon class="st0" points="81.89,34.38 81.89,34.39 81.89,34.39 " />
	<polygon class="st0" points="81.16,34.48 81.16,34.48 81.16,34.47 " />
	<polygon class="st0" points="81.16,34.48 81.16,34.48 81.16,34.48 " />
	<polygon class="st0" points="16.25,34.14 16.25,34.14 16.25,34.14 " />
	<polygon class="st0" points="15.53,34.05 15.53,34.05 15.52,34.05 " />
	<polygon class="st0" points="16.26,34.14 16.26,34.14 16.25,34.14 " />
	<polygon class="st0" points="70.07,62.81 70.07,62.81 70.07,62.81 " />
	<path class="st0" d="M24.65,37.9L24.65,37.9L24.65,37.9z" />
	<polygon class="st0" points="24.66,37.91 24.65,37.9 24.65,37.9 " />
	<rect x="24.66" y="37.91" class="st0" width="0" height="0" />
	<polygon class="st0" points="24.66,37.91 24.66,37.91 24.66,37.91 " />
	<polygon class="st0" points="24.66,37.91 24.66,37.91 24.66,37.91 " />
	<polygon class="st0" points="24.66,37.91 24.66,37.91 24.66,37.91 " />
	<path class="st0" d="M24.65,37.9L24.65,37.9L24.65,37.9z" />
	<polygon class="st0" points="24.6,37.93 24.6,37.93 24.61,37.93 " />
	<polygon class="st0" points="24.59,37.94 24.59,37.94 24.59,37.94 " />
	<polygon class="st0" points="24.65,37.91 24.65,37.9 24.65,37.9 " />
	<rect x="24.66" y="37.91" class="st0" width="0" height="0" />
	<polygon class="st0" points="24.65,37.91 24.64,37.91 24.65,37.91 " />
	<polygon class="st0" points="24.65,37.91 24.65,37.91 24.65,37.91 " />
	<polygon class="st0" points="24.64,37.91 24.65,37.91 24.65,37.91 " />
	<polygon class="st0" points="24.29,39.4 24.29,39.39 24.29,39.4 " />
	<polygon class="st0" points="24.29,39.39 24.29,39.39 24.29,39.39 " />
	<polygon class="st0" points="24.68,37.93 24.68,37.93 24.68,37.93 " />
	<polygon class="st0" points="24.66,37.91 24.67,37.91 24.66,37.91 " />
	<path class="st0" d="M60.19,26.29c-0.28-0.28-0.23-0.19-0.26-0.35l0.12-0.02l0,0c0.23,0.14,0.16,0.09,0.29,0.18
	c0.13,0.1,0.09,0.07,0.21,0.18l0,0c0.09,0.09,0.16,0.18,0.25,0.28l0,0.12c-0.18,0-0.06,0.03-0.41-0.22v0
	C60.27,26.36,60.33,26.41,60.19,26.29L60.19,26.29z" />
	<path class="st0" d="M58.66,27.72c-0.46-0.42-1.01-1.02-1.11-1.14l0-0.12c0.14,0,0.09-0.02,0.2,0.07c0.45,0.39,0.61,0.57,1.04,1.05
	c0.14,0.15,0.11,0.1,0.11,0.24C58.76,27.83,58.81,27.85,58.66,27.72z" />
	<path class="st0" d="M55.02,27.22L55.02,27.22c-0.3-0.33-0.24-0.26-0.48-0.63l0.02-0.12c0.16,0.02,0.07-0.02,0.3,0.21l0,0
	c0.22,0.23,0.23,0.25,0.34,0.38c0.35,0.44,0.29,0.31,0.3,0.48C55.38,27.54,55.41,27.61,55.02,27.22z" />
	<path class="st0" d="M50.29,27.18L50.29,27.18c-0.11-0.11-0.49-0.46-0.74-0.79l0-0.12l0.12,0c0.48,0.42,0.73,0.68,1.08,1.05
	c0.18,0.19,0.15,0.13,0.16,0.28C50.78,27.6,50.84,27.68,50.29,27.18z" />
	<path class="st0" d="M47.08,27.21c-0.38-0.35-0.54-0.6-0.64-0.71l0.01-0.12l0.12,0.01c0.16,0.16,0.48,0.44,0.68,0.65
	c0.68,0.68,0.58,0.59,0.59,0.72C47.72,27.76,47.78,27.85,47.08,27.21z" />
	<path class="st0" d="M43.76,27.29c-0.06-0.11,0.04,0.12-0.66-0.64c-0.03-0.03-0.3-0.34-0.32-0.37l0-0.12l0.12,0
	c0.38,0.34,0.89,0.83,1.02,0.95l0,0c0.17,0.15,0.43,0.39,0.62,0.54l0.02,0.12C44.45,27.79,44.49,27.88,43.76,27.29z" />
	<path class="st0" d="M41.07,27.82c-0.25-0.2-0.28-0.21-0.57-0.46h0c-0.34-0.29-0.57-0.51-0.84-0.92l0.02-0.12
	c0.2,0.03-0.08-0.11,0.98,0.87c0.63,0.59,0.53,0.48,0.54,0.63L41.07,27.82z" />
	<path class="st0" d="M14.18,84.11c-0.15,0-0.05-0.09-0.71,0.59c-0.12,0.12-0.54,0.58-0.64,0.69c-0.36,0.4-0.3,0.25-0.32,0.44
	c0.15,0.01,0.07,0.06,0.46-0.29c0.49-0.45,0.79-0.84,1.2-1.31L14.18,84.11z" />
	<path class="st0" d="M16.37,86.46c0.74-0.61,1.54-1.42,1.94-1.81l0-0.12l-0.12,0C16.15,86.32,16.1,86.46,16.37,86.46z" />
	<path class="st0" d="M14.96,83.48c0.05-0.04,0.27-0.26,0.31-0.31l0,0c0.41-0.43,0.35-0.34,0.35-0.49H15.5
	c-0.32,0.27-0.62,0.48-0.86,0.84c-0.12,0.16-0.1,0.13-0.08,0.26C14.75,83.75,14.61,83.81,14.96,83.48z" />
	<path class="st0" d="M17.02,82.37c-0.19,0.02,0.16-0.24-2.18,2.22c-1.06,1.13-0.95,0.89-0.96,1.1l0.12,0
	c1.14-1.01,2.04-1.98,3.03-3.2L17.02,82.37z" />
	<path class="st0" d="M25.45,84.48l0.01-0.12c-0.14,0-0.06-0.07-0.56,0.37c-0.51,0.44-0.74,0.68-1.22,1.22l0,0.12
	C23.86,86.06,23.66,86.21,25.45,84.48z" />
	<path class="st0" d="M20.56,85.38l-0.02,0.12l0.12,0.02c0.96-0.66,1.64-1.42,2.64-2.22l0.02-0.12l-0.12-0.02
	C22.29,83.79,21.81,84.3,20.56,85.38z" />
	<path class="st0" d="M25.69,85.96l0-0.12c-0.15,0-0.02-0.11-0.88,0.72c-1.27,1.22-1.73,1.69-2.26,2.16l-0.01,0.12
	c0.15,0.01,0.07,0.05,0.42-0.24C24.16,87.61,24.61,87.07,25.69,85.96z" />
	<path class="st0" d="M27.93,83.89v-0.12c-0.16,0-0.05-0.05-0.43,0.27c-0.46,0.37-0.62,0.52-0.81,0.7c-0.24,0.23-0.2,0.18-0.2,0.32
	l0.12,0.01C27.12,84.67,27.51,84.37,27.93,83.89z" />
	<path class="st0" d="M30.55,86.22c-0.11,0.12-0.09,0.08-0.09,0.22c0.14-0.01,0.09,0.01,0.22-0.1c0.55-0.51,0.59-0.47,1.54-1.41
	l0-0.12l-0.12,0C31.59,85.25,31.12,85.56,30.55,86.22z" />
	<path class="st0" d="M34.18,86.45c0.18-0.02,0.04,0.05,0.44-0.36c0.53-0.53,1.41-1.27,2-1.74l0.02-0.12
	c-0.14-0.02-0.02-0.11-0.79,0.47c-0.63,0.47-1.15,0.95-1.63,1.56C34.14,86.37,34.16,86.31,34.18,86.45z" />
	<path class="st0" d="M69.05,86.64c0.71-0.61,1.96-1.96,2.47-2.46l0-0.12l-0.12,0c-0.98,0.86-1.59,1.52-2.18,2.15
	c-0.35,0.37-0.3,0.28-0.3,0.43H69.05z" />
	<path class="st0"
		d="M72.46,86.53l0,0.12c0.2,0,0.06,0.1,2.37-2.18l0.01-0.12l-0.12,0C73.06,85.81,73.09,85.9,72.46,86.53z" />
	<path class="st0" d="M79.68,85.85c-0.14,0.18-0.12,0.12-0.11,0.26c0.17-0.01,0.04,0.04,0.39-0.25c0.11-0.1,0.2-0.17,0.51-0.47l0,0
	c0.52-0.52,0.44-0.45,0.44-0.59c-0.15,0-0.07-0.04-0.36,0.21C80.2,85.31,80,85.47,79.68,85.85z" />
	<path class="st0" d="M82.67,86.21l0,0.12l0.12,0c0.7-0.57,1.16-1,1.85-1.66l0.01-0.12l-0.12,0C83.92,85.03,83.17,85.65,82.67,86.21z
	" />
	<path class="st0" d="M55.77,39.19c-0.81-0.78-0.6-0.7-0.71-0.76c-0.45-0.59-0.39-0.5-0.38-0.64l0.12,0.01
	c0.02,0.02,0.34,0.36,0.44,0.47l0,0c0.36,0.41,0.54,0.64,0.8,0.93v0.12C55.89,39.33,55.96,39.36,55.77,39.19z" />
	<path class="st0" d="M55.79,40.37l0,0.12l-0.12,0c-0.63-0.65-2.1-1.79-2.79-2.53l0-0.12l0.12,0C54.31,38.99,54.72,39.21,55.79,40.37
	z" />
	<path class="st0" d="M54.08,40.39c-0.11-0.1-2.28-1.94-2.39-2.04l-0.01-0.12c0.14-0.02-0.03-0.14,1.21,0.85
	c1.06,0.87,0.89,0.71,2.54,2.17c1.02,0.91,0.88,0.75,0.9,0.91C56.17,42.17,56.45,42.4,54.08,40.39z" />
	<path class="st0" d="M56.16,45.21c-2.18-1.98-4.36-4.51-6.91-6.42l-0.02-0.12l0.12-0.02c2.49,1.75,4.48,4.02,6.49,6
	c0.89,0.88,0.77,0.68,0.78,0.87C56.46,45.53,56.56,45.58,56.16,45.21z" />
	<path class="st0" d="M46.18,38.51c1.69,1.07,3.03,2.34,4.35,3.63c0.49,0.48,0.41,0.37,0.42,0.53c-0.21,0,0.11,0.17-1.63-1.38
	c-3.75-3.31-3.19-2.39-3.26-2.76L46.18,38.51z" />
	<path class="st0" d="M56,47.71c0.68,0.71,0.58,0.54,0.59,0.72c-0.14,0-0.06,0.08-0.73-0.58c-0.98-0.93-2.25-2.38-2.79-2.92v-0.12
	l0.12,0C54.07,45.62,55.29,46.97,56,47.71z" />
	<path class="st0" d="M47.81,45.44c-2.02-1.64-3.8-3.05-5.68-5v-0.12c0.27,0-0.24-0.19,2.92,2.52c3.33,2.9,3.05,2.51,3.07,2.74
	C47.96,45.6,48.03,45.63,47.81,45.44z" />
	<path class="st0" d="M54.02,51.1c-0.88-0.84-2.07-1.85-3.39-3.35l0-0.12l0.12,0c0.75,0.82,2.97,2.83,4.18,4.09
	c0.2,0.21,0.16,0.15,0.16,0.29C54.89,52.03,55.14,52.15,54.02,51.1z" />
	<path class="st0"
		d="M45.1,46.47c-1.12-0.96-2.3-2.02-3.27-3.13l0.01-0.12c0.2,0.01-0.02-0.09,0.82,0.75
	c2.26,2.23,3.02,2.37,13.32,12.2c0.89,0.86,0.77,0.7,0.77,0.86c-0.19,0,0.33,0.4-4.28-3.89C46.26,47.39,48.35,49.27,45.1,46.47z" />
	<path class="st0" d="M42.16,46.37c0.27,0.01-0.13-0.08,1.48,1.24c1.72,1.41,2.51,2.12,4.81,4.24c1.8,1.66,1.58,1.46,1.59,1.6
	c-0.31,0.01-0.92-0.88-6.54-5.69c-0.44-0.37-1.01-0.89-1.36-1.28L42.16,46.37z" />
	<path class="st0" d="M52.02,55.48l0.01-0.12c0.27,0.03-0.24-0.19,2.35,2.29c1.78,1.68,1.58,1.5,1.59,1.64
	c-0.16,0-0.06,0.05-0.43-0.28C54.71,58.26,53.01,56.8,52.02,55.48z" />
	<path class="st0"
		d="M52.48,59.34c-1.36-1.3-3.9-3.54-5.45-5.09c-1.51-1.54-2.68-2.87-4.3-4l-0.02-0.11
	c0.14-0.03,0.06-0.07,0.46,0.22c1.68,1.23,2.87,2.59,4.03,3.73c1.41,1.41,8.08,7.41,8.06,7.9C54.97,61.97,55.5,62.19,52.48,59.34z" />
	<path class="st0" d="M46.7,57.09c-1.18-1.18-2.25-2.31-3.43-3.28c-0.5-0.43-0.43-0.28-0.45-0.47c0.43-0.06,3.76,3.32,4.04,3.59
	c1.85,1.81,5.28,4.82,9.48,9.3l0,0.12l-0.12,0C52.93,62.83,49.32,59.67,46.7,57.09z" />
	<path class="st0" d="M46.15,59.77c-0.15,0,0.04,0.19-1.47-1.24c-1.32-1.27-1.94-1.96-2.48-2.49l0-0.12l0.12,0
	c0.12,0.12,1.03,0.96,1.83,1.76C46.39,59.91,46.14,59.59,46.15,59.77z" />
	<path class="st0" d="M48.27,61.71c0.16,0-0.13-0.23,2.16,1.9c0.13,0.13,2.07,1.89,3.75,3.82l-0.01,0.12l-0.12-0.01
	C52.02,65.29,48.28,62.03,48.27,61.71z" />
	<path class="st0" d="M42.35,59.52c5.75,5.22,11.17,9.92,13.32,12.91l-0.02,0.12c-0.16-0.03-0.06,0.04-0.38-0.37
	c-0.75-0.98-1.5-1.74-2.35-2.57C42.06,59.21,41.83,59.54,42.35,59.52z" />
	<path class="st0" d="M57.61,63.41c-0.13-0.03,0-0.13-1.05,0.62c-3.78,2.79-6.35,5.86-8.9,8.29c-1.36,1.28-2.31,2.18-3.34,3.48
	l0.02,0.12c0.17-0.02,0.06,0.04,0.4-0.37c1.04-1.24,2.06-2.12,3.66-3.63c2.42-2.33,5.2-5.58,9.19-8.4L57.61,63.41z" />
	<path class="st0" d="M47.84,75.26c0.16,0-0.02,0.13,1.04-0.83c5.44-4.78,5.97-5.89,8.46-7.92l0.01-0.12l-0.12-0.01
	c-2.09,1.63-3.23,3.12-8.48,7.91C47.7,75.26,47.85,75.1,47.84,75.26z" />
	<path class="st0" d="M44.14,79.12c-0.54,0.63-0.47,0.49-0.46,0.66c0.15-0.01,0.01,0.13,0.96-0.89c0.55-0.58,1-1.18,1.43-1.84
	l-0.02-0.11C45.83,76.97,46.23,76.71,44.14,79.12z" />
	<path class="st0" d="M48.98,77.33c2.5-2.38,3.34-3.09,4.28-4.09c1.45-1.59,2.36-2.64,3.64-3.48l0.03-0.11
	c-0.14-0.03-0.08-0.04-0.2,0.02c-1.24,0.77-2.54,2.23-3.63,3.41c-1.81,1.85-6.17,5.53-9.4,9.54c-0.09,0.11-0.06,0.05-0.05,0.19
	C44.01,82.78,44.17,81.91,48.98,77.33z" />
	<path class="st0" d="M50.09,79.15c1.24-1.17,2.96-2.71,4.21-3.96c1.09-1.09,2-2.32,3.42-3.4l0.02-0.12
	c-0.14-0.02-0.07-0.06-0.37,0.18c-1.16,0.91-2.1,2.05-2.99,2.95c-1.44,1.48-4.88,4.4-6.98,6.75c-0.59,0.65-1.26,1.44-2.12,2.36
	c-0.25,0.27-0.21,0.18-0.21,0.34C45.43,84.26,46.54,82.49,50.09,79.15z" />
	<path class="st0" d="M58.26,74.23c-0.37,0.34-0.57,0.54-0.93,0.92c-4.06,4.24-8.52,8.44-8.51,8.83c0.25-0.01-0.25,0.26,3.03-2.97
	c3.89-3.83,3.7-3.6,5.61-5.73c1.05-1.12,0.9-0.85,0.91-1.04L58.26,74.23z" />
	<path class="st0" d="M58.15,77.27l-0.12,0.01c-0.54,0.6-3.04,3.46-3.84,4.32c-1.32,1.43-1.21,1.16-1.22,1.39
	c0.14,0,0,0.16,1.37-1.24c1.87-1.95,2.51-2.81,3.82-4.36L58.15,77.27z" />
	<path class="st0" d="M57.38,81.23c-1.14,1.32-1.48,1.77-2.44,2.8l0,0.12c0.16,0,0.04,0.08,0.61-0.5c0.86-0.9,1.48-1.6,2.76-3.25
	l-0.01-0.12C58.15,80.29,58.3,80.15,57.38,81.23z" />
	<path class="st0" d="M57.8,83.1L57.8,83.1c-0.23,0.28-0.27,0.33-0.59,0.8l0.01,0.12l0.12-0.02c0.44-0.48,0.61-0.71,0.95-1.18
	l-0.01-0.12C58.15,82.72,58.13,82.73,57.8,83.1z" />
	<path class="st0" d="M29.91,41.86c0.32,0,0.67,0.02,0.97,0.05c0.32,0.03,0.25,0,0.35,0.11c-0.12,0.11-0.04,0.07-0.36,0.08
	c-0.15,0-0.75,0.01-0.97,0c-1.39-0.03-1.22-0.01-1.33-0.12C28.69,41.87,28.52,41.87,29.91,41.86z" />
	<path class="st0" d="M35.3,43.94c0.14,0.01,0.08-0.02,0.19,0.1c-0.11,0.1-0.06,0.08-0.2,0.08c-1.5-0.02-2.09-0.12-3.4-0.2
	l-0.08-0.09l0.09-0.08C33.5,43.75,34.6,43.88,35.3,43.94z" />
	<path class="st0" d="M29.46,43.67c0.28,0,0.64,0.02,0.92,0.04c0.3,0.02,0.23,0,0.34,0.11l-0.09,0.08c-0.51,0.04-1.67,0.03-2.34-0.03
	l-0.08-0.09C28.32,43.67,28.12,43.69,29.46,43.67z" />
	<path class="st0" d="M32.79,45.58c3.04,0.18,2.64,0.08,2.79,0.22c-0.11,0.11-0.04,0.08-0.31,0.09c-1.15,0.02-1.97,0-3.39-0.21
	l-0.07-0.09C31.93,45.49,31.76,45.51,32.79,45.58z" />
	<path class="st0" d="M29.14,45.41c1.71,0.11,1.51,0.08,1.61,0.19c-0.11,0.1-0.06,0.08-0.19,0.08c-1.26,0-1.52-0.03-2.49-0.1
	c-0.76-0.06-0.61-0.01-0.73-0.14C27.46,45.35,27.23,45.33,29.14,45.41z" />
	<path class="st0" d="M71.95,75.71c0.11,0.11,0.06,0.08,0.21,0.09c0.72,0.02,1.03-0.01,1.59-0.07c0.39-0.05,0.29-0.01,0.39-0.12
	c-0.11-0.1-0.04-0.08-0.4-0.08c-0.54,0-0.73,0.03-1.58,0.09C72.01,75.63,72.06,75.6,71.95,75.71z" />
	<path class="st0" d="M71.53,74.65l0.09,0.08c0.57,0.02,0.96,0.06,1.64-0.02l0.08-0.08l-0.08-0.08c-0.46-0.05-1.05-0.04-1.64,0.01
	L71.53,74.65z" />
	<path class="st0" d="M75.01,72.08c0.72-0.06,0.59-0.02,0.7-0.13c-0.11-0.11,0.02-0.09-0.7-0.1c-0.42,0-0.72,0.03-1.36,0.08
	l-0.08,0.09l0.09,0.08C73.97,72.1,74.62,72.11,75.01,72.08z" />
	<path class="st0" d="M73.96,70.12c1.2-0.03,1.29-0.09,1.77-0.12l0.08-0.09l-0.09-0.08c-0.93,0-1.23,0.03-1.77,0.07
	c-0.68,0.06-0.56,0.03-0.68,0.14C73.4,70.15,73.27,70.13,73.96,70.12z" />
	<path class="st0" d="M73.54,68.04c-0.53,0.09-0.41,0.02-0.53,0.16c0.11,0.1,0.05,0.1,0.55,0.06c0.8-0.05,0.82-0.13,1.16-0.17
	L74.8,68l-0.09-0.07C74.2,67.92,73.79,68,73.54,68.04z" />
	<path class="st0" d="M79.64,77.53c0.12,0.11,0,0.08,0.56,0.08c0.17,0,0.83,0,1.25-0.02c0.9-0.05,0.76-0.02,0.86-0.13
	c-0.11-0.11,0.03-0.09-0.87-0.1c-0.56-0.01-0.93,0.03-1.25,0.05C79.64,77.45,79.75,77.42,79.64,77.53z" />
	<path class="st0" d="M79.75,76.28c0.11,0.1,0.04,0.08,0.33,0.08c1.06-0.02,1.41-0.05,2.28-0.11c0.62-0.06,0.47,0.02,0.6-0.12
	c-0.11-0.11-0.02-0.09-0.61-0.09c-0.99,0-1.51,0.08-2.28,0.13C79.79,76.19,79.86,76.16,79.75,76.28z" />
	<path class="st0" d="M84.71,74.45c0.95-0.05,0.77,0,0.89-0.12l-0.08-0.08c-0.49,0-1.02-0.08-3.5,0.12
	c-0.58,0.04-0.47,0.01-0.58,0.13C81.56,74.61,81.19,74.61,84.71,74.45z" />
	<path class="st0" d="M81.04,72.47c1.11,0,1.74,0.06,3.47-0.02l0.08-0.08l-0.08-0.08c-0.62,0-2.16-0.08-3.47,0
	c-0.49,0.02-0.4-0.01-0.51,0.11C80.65,72.49,80.54,72.47,81.04,72.47z" />
	<path class="st0" d="M84.53,69.95c0.38-0.02,0.29,0.01,0.4-0.1c-0.11-0.11-0.03-0.08-0.4-0.1c-0.81-0.03-1-0.03-1.61-0.01
	c-0.74,0.02-0.62,0-0.75,0.11c0.13,0.11,0,0.09,0.75,0.11C83.5,69.98,83.78,69.99,84.53,69.95z" />
	<path class="st0" d="M84.31,65.48c-0.81-0.04-1.46,0.01-2.11,0.05c-0.66,0.05-0.52,0.01-0.63,0.13c0.11,0.1-0.01,0.08,0.64,0.08
	c0.83,0,1.72-0.05,2.1-0.07c0.31-0.01,0.25,0.02,0.36-0.09C84.56,65.47,84.62,65.49,84.31,65.48z" />
	<path class="st0" d="M10.3,58.45l0.09-0.08c3.36,0.1,3.38,0.13,4.64,0.19c1.95,0.1,1.64,0.03,1.76,0.16
	c-0.11,0.1,0.11,0.1-1.77,0.06c-1.7-0.04-3.65-0.16-4.64-0.24L10.3,58.45z" />
	<path class="st0" d="M15.87,61.07c1.2,0.08,1.06,0.08,1.18,0.18c-0.13,0.1,0.1,0.09-1.52,0.05l0,0c-0.88-0.04-0.71,0.01-0.83-0.1
	l0.08-0.09C15.16,61.08,15.48,61.06,15.87,61.07z" />
	<path class="st0" d="M24.35,78.16c3.26,0.12,5.27,0.12,8.4,0.01c2.79-0.11,2.46-0.1,2.57-0.21c-0.29-0.26-0.28,0.2-11.5,0.02
	l-0.08,0.08C23.85,78.16,23.75,78.14,24.35,78.16z" />
	<path class="st0" d="M26.46,77c6.51-0.34,6.35-0.19,6.52-0.38c-0.12-0.11,0.13-0.08-1.47-0.05c-2.24,0.06-3.42,0.07-5.99,0.32
	l-0.08,0.09C25.57,77.08,25.39,77.06,26.46,77z" />
	<path class="st0" d="M29.38,75.19c-3.68-0.11-3.97-0.02-5.24-0.02l-0.08,0.08c0.15,0.15-0.34,0.1,5.32,0.1
	c0.11,0,0.06,0.02,0.17-0.08C29.44,75.17,29.49,75.19,29.38,75.19z" />
	<path class="st0" d="M32.54,73.02c-0.11-0.1,0.05-0.08-0.94-0.09c-0.47,0-0.8,0-1.86,0.07l-0.08,0.08c0.11,0.11-0.01,0.08,0.76,0.1
	c0.46,0,0.69,0,1.19-0.02C32.59,73.1,32.43,73.13,32.54,73.02z" />
	<path class="st0" d="M16.72,77.99c-0.31,0.03-0.23,0-0.34,0.11c0.11,0.1,0.05,0.08,0.35,0.08c0.36,0,0.74-0.02,1.07-0.04
	c0.81-0.07,0.65,0.06,0.83-0.09l-0.08-0.09C17.85,77.88,17.37,77.92,16.72,77.99z" />
	<path class="st0" d="M13.86,72.41c-0.35-0.01-0.77,0.03-0.9,0.03l-0.08,0.08l0.08,0.08c0.11,0,0.51,0.05,0.9,0.05
	c0.99-0.03,0.88-0.02,0.99-0.14c-0.11-0.1-0.07-0.08-0.2-0.08C14.14,72.42,14.16,72.41,13.86,72.41z" />
	<path class="st0" d="M83.12,62.15c0.12-0.1,0.06-0.08,0.27-0.08c0.73,0,0.76,0.04,1.18,0.09l0.08,0.09l-0.09,0.08
	c-0.25,0.04-0.86-0.02-1.19-0.07C83.17,62.23,83.23,62.26,83.12,62.15z" />
</svg>
